<?xml version="1.0" encoding="UTF-8"?>
<svg version="1.1" xmlns="http://www.w3.org/2000/svg" width="512" height="512">
<path d="M0 0 C3.49573486 3.02333826 6.92916599 6.11056234 10.328125 9.2421875 C12.51304861 11.26035665 12.51304861 11.26035665 15.45703125 13.125 C16.19953125 12.1040625 16.19953125 12.1040625 16.95703125 11.0625 C20.14991302 7.31086392 23.65372485 4.24534034 27.45703125 1.125 C28.31167969 0.42117187 29.16632813 -0.28265625 30.046875 -1.0078125 C47.09934539 -14.43458617 65.35359249 -22.0066123 87.14453125 -22.1875 C88.81612305 -22.23100586 88.81612305 -22.23100586 90.52148438 -22.27539062 C105.98990574 -22.38932234 120.40676119 -17.86152137 134.88623047 -12.84399414 C138.79168407 -11.49249609 142.70937906 -10.17715225 146.625 -8.85546875 C147.39210297 -8.59563202 148.15920593 -8.33579529 148.94955444 -8.06808472 C170.86342815 -0.65154962 191.88261219 5.05883218 215.05810547 6.44262695 C227.55456033 7.22252908 227.55456033 7.22252908 230.45703125 10.125 C230.54470237 12.19762076 230.56398998 14.27320294 230.5546875 16.34765625 C230.55146484 17.60771484 230.54824219 18.86777344 230.54492188 20.16601562 C230.53656528 21.50651109 230.52810032 22.84700588 230.51953125 24.1875 C230.51451785 25.53189942 230.50995467 26.8763006 230.50585938 28.22070312 C230.49402613 31.52217941 230.47754096 34.82356803 230.45703125 38.125 C232.16802002 38.10928955 232.16802002 38.10928955 233.91357422 38.09326172 C238.13652419 38.05712283 242.35946044 38.03412188 246.58251953 38.01513672 C248.41196998 38.00506516 250.24140428 37.99140724 252.07080078 37.97412109 C254.69698059 37.94992323 257.322948 37.93852868 259.94921875 37.9296875 C260.77009979 37.91936493 261.59098083 37.90904236 262.43673706 37.89840698 C264.44492267 37.89800816 266.45258507 38.0025046 268.45703125 38.125 C270.90095799 40.56892674 270.70736879 41.18392833 270.70871353 44.53534698 C270.71653677 45.93456996 270.71653677 45.93456996 270.72451806 47.36206007 C270.7178259 48.90959998 270.7178259 48.90959998 270.71099854 50.48840332 C270.71411852 51.57900952 270.7172385 52.66961572 270.72045302 53.79327059 C270.72847307 57.47226033 270.72209379 61.15108696 270.71582031 64.83007812 C270.71852839 67.4576375 270.72208829 70.08519613 270.72644043 72.7127533 C270.73535179 79.12340575 270.73340469 85.53401148 270.72761515 91.94466579 C270.7231055 97.15293886 270.72248273 102.3611988 270.72466278 107.56947327 C270.72496925 108.30964629 270.72527571 109.04981932 270.72559147 109.81242183 C270.72623089 111.3158863 270.72687932 112.81935077 270.72753665 114.32281524 C270.73324505 128.43368184 270.72667407 142.54452249 270.71593592 156.65538484 C270.70699994 168.77336201 270.70855184 180.89130087 270.71777344 193.00927734 C270.72846708 207.06831287 270.73269568 221.12732563 270.72654891 235.18636465 C270.72591179 236.68441867 270.72528304 238.1824727 270.72466278 239.68052673 C270.72435423 240.41767278 270.72404568 241.15481882 270.72372778 241.91430262 C270.72199811 247.11866029 270.72492177 252.32300357 270.72962189 257.52735901 C270.73580416 264.52699501 270.73142717 271.52655719 270.71983337 278.52618599 C270.7171784 281.10221295 270.71796603 283.67824597 270.7223587 286.25427055 C270.72778267 289.75679648 270.72101844 293.25908602 270.71099854 296.76159668 C270.71545998 297.79328995 270.71992142 298.82498322 270.72451806 299.88793993 C270.71930257 300.82075525 270.71408707 301.75357057 270.70871353 302.71465302 C270.70838883 303.52389205 270.70806412 304.33313109 270.70772958 305.16689253 C270.45703125 307.125 270.45703125 307.125 268.45703125 309.125 C265.58256872 309.31763592 262.80465445 309.38364284 259.92935181 309.36309814 C259.03616725 309.36465715 258.1429827 309.36621616 257.22273195 309.36782241 C254.21172378 309.37079216 251.20092879 309.35957772 248.18994141 309.34863281 C246.03852847 309.34810891 243.88711511 309.34854339 241.73570251 309.34986877 C237.09375654 309.3512052 232.45186327 309.34677541 227.80992508 309.33826447 C220.47435441 309.32591878 213.13888265 309.3328121 205.80331421 309.34368896 C184.94078958 309.37220395 164.07834931 309.38455422 143.21582031 309.35498047 C131.70055503 309.33881846 120.18550456 309.34388746 108.67026174 309.37277675 C102.57226195 309.38710381 96.47470902 309.39001906 90.37672806 309.36655426 C84.6425088 309.34449366 78.9089847 309.34986294 73.17479134 309.37653923 C71.06724246 309.38132618 68.95964176 309.37578766 66.85215187 309.35930824 C63.98013943 309.3383275 61.11060383 309.35397794 58.23867798 309.37896729 C57.39957591 309.36401695 56.56047384 309.34906661 55.69594443 309.33366323 C53.08279043 309.31577719 53.08279043 309.31577719 49.45703125 310.125 C46.95791028 312.93576322 46.95791028 312.93576322 45.45703125 316.125 C40.79245966 320.38851194 34.76489179 319.5746048 28.8046875 319.55859375 C27.67179794 319.5638356 26.53890839 319.56907745 25.37168884 319.57447815 C22.97867654 319.58089428 20.58563268 319.57956668 18.19262695 319.57104492 C14.53604829 319.56253842 10.88103364 319.59129896 7.22460938 319.62304688 C4.89713588 319.62465911 2.56965963 319.62408094 0.2421875 319.62109375 C-0.84859604 319.63232773 -1.93937958 319.64356171 -3.06321716 319.65513611 C-9.01892003 319.60060137 -12.97901694 319.37344404 -17.54296875 315.125 C-17.90987792 314.26585086 -18.27678709 313.40670172 -18.65481472 312.52151775 C-20.43684641 309.70583368 -20.43684641 309.70583368 -24.32672977 309.49973011 C-25.95240135 309.4738812 -27.57865001 309.47598054 -29.20436096 309.4992218 C-30.09981107 309.49227726 -30.99526118 309.48533271 -31.91784614 309.47817773 C-34.93076463 309.46085716 -37.94242323 309.47925425 -40.95532227 309.49731445 C-43.11013407 309.49213884 -45.26494152 309.48474134 -47.41973877 309.47528076 C-52.06558822 309.45968627 -56.71107702 309.45991168 -61.3569355 309.47228432 C-68.69631688 309.49176578 -76.03537529 309.47666549 -83.3747406 309.45683289 C-94.97810565 309.42965306 -106.58133987 309.42619805 -118.18473047 309.43260592 C-138.97604204 309.44353917 -159.76731441 309.41904312 -180.55858558 309.37885827 C-187.86138035 309.36574509 -195.16405546 309.36455307 -202.46685612 309.3729912 C-207.00115478 309.3766037 -211.53542259 309.37233039 -216.06971741 309.3661499 C-218.17971852 309.36505998 -220.28972459 309.36745139 -222.39971733 309.3734951 C-225.26942199 309.38132317 -228.13886015 309.37709734 -231.00856018 309.36982727 C-231.85280582 309.3751726 -232.69705145 309.38051794 -233.56688029 309.38602525 C-239.31486875 309.3531 -239.31486875 309.3531 -241.54296875 307.125 C-241.79366708 305.16689253 -241.79366708 305.16689253 -241.79465103 302.71465302 C-241.80247427 301.31543004 -241.80247427 301.31543004 -241.81045556 299.88793993 C-241.80599412 298.85624666 -241.80153267 297.82455338 -241.79693604 296.76159668 C-241.80005602 295.67099048 -241.803176 294.58038428 -241.80639052 293.45672941 C-241.81441057 289.77773967 -241.80803129 286.09891304 -241.80175781 282.41992188 C-241.80446589 279.7923625 -241.80802579 277.16480387 -241.81237793 274.5372467 C-241.82128929 268.12659425 -241.81934219 261.71598852 -241.81355265 255.30533421 C-241.809043 250.09706114 -241.80842023 244.8888012 -241.81060028 239.68052673 C-241.81090675 238.94035371 -241.81121321 238.20018068 -241.81152897 237.43757817 C-241.81216839 235.9341137 -241.81281682 234.43064923 -241.81347415 232.92718476 C-241.81918255 218.81631816 -241.81261157 204.70547751 -241.80187342 190.59461516 C-241.79293744 178.47663799 -241.79448934 166.35869913 -241.80371094 154.24072266 C-241.81440458 140.18168713 -241.81863318 126.12267437 -241.81248641 112.06363535 C-241.81184929 110.56558133 -241.81122054 109.0675273 -241.81060028 107.56947327 C-241.81029173 106.83232722 -241.80998318 106.09518118 -241.80966528 105.33569738 C-241.80793561 100.13133971 -241.81085927 94.92699643 -241.81555939 89.72264099 C-241.82174166 82.72300499 -241.81736467 75.72344281 -241.80577087 68.72381401 C-241.8031159 66.14778705 -241.80390353 63.57175403 -241.8082962 60.99572945 C-241.81372017 57.49320352 -241.80695594 53.99091398 -241.79693604 50.48840332 C-241.80139748 49.45671005 -241.80585892 48.42501678 -241.81045556 47.36206007 C-241.80524007 46.42924475 -241.80002457 45.49642943 -241.79465103 44.53534698 C-241.79432633 43.72610795 -241.79400162 42.91686891 -241.79366708 42.08310747 C-241.54296875 40.125 -241.54296875 40.125 -239.54296875 38.125 C-236.67408294 37.94967711 -233.9030423 37.89362386 -231.03515625 37.9296875 C-229.77422653 37.93393234 -229.77422653 37.93393234 -228.48782349 37.93826294 C-225.79772829 37.9494757 -223.10796365 37.97458197 -220.41796875 38 C-218.59635897 38.0100284 -216.77474398 38.01915449 -214.953125 38.02734375 C-210.48294517 38.04941858 -206.01301304 38.08395566 -201.54296875 38.125 C-201.5586792 36.86840576 -201.5586792 36.86840576 -201.57470703 35.58642578 C-201.60876894 32.48161836 -201.63385786 29.37690608 -201.65283203 26.27197266 C-201.66784982 24.2658864 -201.69325856 22.25988676 -201.71875 20.25390625 C-201.72841797 18.36865234 -201.72841797 18.36865234 -201.73828125 16.4453125 C-201.7539917 14.70145264 -201.7539917 14.70145264 -201.77001953 12.92236328 C-201.54296875 10.125 -201.54296875 10.125 -199.54296875 8.125 C-196.14129541 7.2357989 -192.79094489 6.93846699 -189.2890625 6.73046875 C-162.25747474 4.96594277 -138.03213329 -2.00677574 -112.4375 -10.578125 C-111.76893982 -10.80188812 -111.10037964 -11.02565125 -110.41156006 -11.25619507 C-107.20154775 -12.33220056 -103.9947699 -13.41618551 -100.79150391 -14.51220703 C-64.8838772 -26.69311398 -30.07793724 -24.87868153 0 0 Z M-85.375 -7.72265625 C-86.59465958 -7.39883217 -86.59465958 -7.39883217 -87.83895874 -7.06846619 C-96.39202142 -4.7363384 -104.72222502 -1.820858 -113.07232666 1.14416504 C-138.8455135 10.26268667 -163.14146798 16.16774995 -190.54296875 18.125 C-190.54296875 87.425 -190.54296875 156.725 -190.54296875 228.125 C-182.00214522 228.125 -174.49643418 228.00189987 -166.23046875 226.5625 C-164.6822644 226.29469727 -164.6822644 226.29469727 -163.1027832 226.02148438 C-147.11094185 223.0982054 -131.86114689 217.96838169 -116.55566406 212.60058594 C-88.97701673 202.9378112 -59.35876411 193.32351814 -30.54296875 204.125 C-29.52847656 204.475625 -28.51398438 204.82625 -27.46875 205.1875 C-14.68515275 210.00014838 -4.13766766 218.09690028 6.0078125 227.03515625 C8.04720871 229.23318186 8.04720871 229.23318186 9.45703125 229.125 C9.69082198 202.71690471 9.86706758 176.30896492 9.97515297 149.90004253 C10.02667714 137.6373551 10.09689957 125.37531134 10.21142578 113.11303711 C10.31122074 102.42291905 10.37564237 91.73326723 10.3979162 81.0426963 C10.41093309 75.38387655 10.44143696 69.7263904 10.51433182 64.06799889 C10.58245544 58.7365314 10.60309867 53.40694037 10.58810806 48.07507896 C10.59084836 46.12356347 10.61059794 44.17198212 10.649086 42.22084427 C11.02093698 29.29389134 11.02093698 29.29389134 4.60775757 18.57649231 C2.93487425 17.04319818 1.22166716 15.5517409 -0.54296875 14.125 C-1.72573247 13.05911733 -2.90815902 11.99286001 -4.08984375 10.92578125 C-5.14743287 10.08348936 -6.21514538 9.25373964 -7.29296875 8.4375 C-7.8765918 7.98818115 -8.46021484 7.5388623 -9.06152344 7.07592773 C-32.58788855 -10.6191968 -57.06626946 -15.28817295 -85.375 -7.72265625 Z M25.45703125 18.125 C24.96354388 18.59848596 24.4700565 19.07197191 23.96161497 19.55980593 C20.27912057 23.39421082 18.77003706 26.06199971 18.6825434 31.39405769 C18.70002045 32.1713122 18.71749749 32.94856671 18.73550415 33.74937439 C18.7303776 34.5924836 18.72525105 35.43559281 18.71996915 36.30425078 C18.71012229 39.1163028 18.74302282 41.9261846 18.77587891 44.73803711 C18.77757212 46.75874786 18.77661985 48.7794623 18.77322388 50.8001709 C18.77150367 56.27717883 18.80675845 61.75339698 18.84866762 67.23022151 C18.88619703 72.95703414 18.88970175 78.68386524 18.89682007 84.41078186 C18.91546233 95.25155079 18.96469131 106.09195631 19.02491701 116.93256527 C19.09200113 129.27585129 19.12497599 141.61915474 19.15508962 153.9625777 C19.21779063 179.35025321 19.32331395 204.73760623 19.45703125 230.125 C20.57418598 229.16786272 21.69128045 228.21065512 22.80834961 227.25341797 C23.43043808 226.72038055 24.05252655 226.18734314 24.69346619 225.63815308 C26.07652727 224.45147549 27.4567708 223.26151395 28.8359375 222.0703125 C45.60686209 208.08954173 65.64531936 199.54688005 87.58203125 199.6875 C88.66484375 199.66751953 89.74765625 199.64753906 90.86328125 199.62695312 C106.08394878 199.63582298 120.41227965 204.14646921 134.65881348 209.09915161 C138.54570669 210.447998 142.44506873 211.75991359 146.34375 213.07421875 C147.11901031 213.33609482 147.89427063 213.59797089 148.69302368 213.86778259 C176.95165247 223.78849145 176.95165247 223.78849145 206.45703125 227.125 C206.12703125 230.755 205.79703125 234.385 205.45703125 238.125 C185.32583525 235.22855446 166.28512312 230.55264676 147.0625 223.921875 C146.23667419 223.63714828 145.41084839 223.35242157 144.55999756 223.05906677 C140.45957698 221.64075021 136.3659038 220.20612841 132.28076172 218.74438477 C106.53689929 209.62457528 81.1301441 204.99258638 55.45703125 217.125 C44.70535677 222.80580687 34.74674502 230.19875464 26.45703125 239.125 C26.45703125 239.785 26.45703125 240.445 26.45703125 241.125 C30.78459222 243.63033756 30.78459222 243.63033756 35.63574219 243.85839844 C38.07630808 243.1660171 40.44570252 242.36086728 42.83203125 241.5 C44.62143898 240.91363393 46.41316151 240.33428886 48.20703125 239.76171875 C49.09519531 239.47731934 49.98335938 239.19291992 50.8984375 238.89990234 C83.63370916 228.98561301 119.60229077 235.64909605 152.61950684 240.78137207 C186.37287333 246.20311929 186.37287333 246.20311929 220.45703125 248.125 C220.45703125 172.225 220.45703125 96.325 220.45703125 18.125 C212.86703125 17.465 205.27703125 16.805 197.45703125 16.125 C178.06448911 13.06920548 159.84898549 7.30126968 141.2890625 1.04296875 C140.49712997 0.776586 139.70519745 0.51020325 138.88926697 0.23574829 C134.97779071 -1.08070047 131.06973692 -2.40574782 127.16772461 -3.75 C88.59814654 -16.91982051 54.99569314 -11.19726143 25.45703125 18.125 Z M-231.54296875 48.125 C-231.54296875 130.955 -231.54296875 213.785 -231.54296875 299.125 C-159.27296875 299.455 -87.00296875 299.785 -12.54296875 300.125 C-11.22296875 302.765 -9.90296875 305.405 -8.54296875 308.125 C-4.57897594 309.44633094 -0.77369556 309.28753803 3.359375 309.29296875 C4.23348526 309.29629715 5.10759552 309.29962555 6.00819397 309.30305481 C7.85661289 309.30811649 9.70504095 309.31046337 11.5534668 309.31030273 C14.38019875 309.31248892 17.20654023 309.3306517 20.03320312 309.34960938 C21.82942575 309.35254351 23.62565023 309.35452817 25.421875 309.35546875 C26.6892173 309.36624702 26.6892173 309.36624702 27.98216248 309.37724304 C29.16842979 309.3726281 29.16842979 309.3726281 30.37866211 309.36791992 C31.07132675 309.36934494 31.76399139 309.37076996 32.47764587 309.37223816 C35.0345082 309.05286936 36.3585109 308.66942681 38.45703125 307.125 C39.94203125 303.66 39.94203125 303.66 41.45703125 300.125 C113.72703125 299.795 185.99703125 299.465 260.45703125 299.125 C260.45703125 216.295 260.45703125 133.465 260.45703125 48.125 C250.55703125 48.125 240.65703125 48.125 230.45703125 48.125 C230.44672379 50.99170883 230.43641632 53.85841766 230.42579651 56.81199646 C230.33091449 83.07257628 230.23111294 109.33313402 230.12591431 135.59367457 C230.11214398 139.0322575 230.09841699 142.47084061 230.0847168 145.90942383 C230.08198849 146.5940123 230.07926019 147.27860077 230.07644921 147.98393435 C230.0323192 159.08304205 229.99170456 170.18215999 229.95237864 181.28128564 C229.91197835 192.66166132 229.86774994 204.04201648 229.8201527 215.42236477 C229.79352582 221.8180383 229.76867219 228.21370797 229.74795723 234.60940361 C229.72842979 240.62161269 229.70429792 246.63378521 229.67654037 252.64596176 C229.66714924 254.85957617 229.65948145 257.07319863 229.65361214 259.28682518 C229.64538585 262.29493065 229.63111928 265.30294653 229.61524963 268.3110199 C229.61427153 269.19913422 229.61329342 270.08724853 229.61228567 271.00227541 C229.57115246 277.01087879 229.57115246 277.01087879 228.45703125 278.125 C226.19064489 278.22407582 223.92109299 278.25055766 221.65254211 278.25084114 C220.56732484 278.2530213 220.56732484 278.2530213 219.46018398 278.25524551 C217.00509242 278.25893173 214.55006194 278.25540704 212.0949707 278.25198364 C210.32940546 278.25313443 208.56384045 278.25472166 206.79827595 278.25671089 C201.92258588 278.26091007 197.04691523 278.25881088 192.17122507 278.25572467 C186.92236603 278.25347317 181.67351046 278.25694893 176.4246521 278.25970459 C166.1326397 278.26416398 155.84063458 278.26318507 145.54862189 278.26029195 C137.18814519 278.25803857 128.82767053 278.25772511 120.4671936 278.25881577 C119.27976321 278.258969 118.09233281 278.25912223 116.86891967 278.25928011 C114.45709093 278.25959982 112.0452622 278.25992403 109.63343346 278.2602527 C86.98860977 278.26310798 64.34379012 278.25981971 41.6989671 278.25445233 C22.24559844 278.24998425 2.79223574 278.25076017 -16.66113281 278.25537109 C-39.2219048 278.260716 -61.78267324 278.26283329 -84.34344578 278.25975883 C-86.74667422 278.25944026 -89.14990266 278.25912589 -91.5531311 278.25881577 C-93.32703635 278.25858435 -93.32703635 278.25858435 -95.13677806 278.25834826 C-103.49250256 278.25748286 -111.84822482 278.25894649 -120.20394897 278.26129532 C-130.37918592 278.26409259 -140.55441515 278.2633566 -150.72965121 278.25801457 C-155.9266202 278.25537657 -161.12357629 278.25437415 -166.3205452 278.25766373 C-171.06998545 278.26062468 -175.81940075 278.25903727 -180.56883872 278.25368617 C-182.29492532 278.25256112 -184.02101399 278.25315509 -185.74709928 278.25556196 C-188.07759017 278.25856449 -190.40799345 278.255523 -192.73847961 278.25084114 C-194.03772023 278.25067879 -195.33696085 278.25051644 -196.6755724 278.25034916 C-199.54296875 278.125 -199.54296875 278.125 -200.54296875 277.125 C-200.65336901 274.17964995 -200.69794237 271.25724743 -200.70118713 268.3110199 C-200.70612511 267.37503198 -200.71106309 266.43904407 -200.7161507 265.47469288 C-200.73160708 262.31312723 -200.73990823 259.151582 -200.74829102 255.98999023 C-200.75786315 253.73371193 -200.76787283 251.47743545 -200.77828979 249.22116089 C-200.80541695 243.07473349 -200.82638408 236.92829835 -200.84629178 230.7818439 C-200.86810334 224.36627195 -200.89551557 217.95072407 -200.92234802 211.53517151 C-200.96665268 200.76019265 -201.0074768 189.98520701 -201.0456543 179.21020508 C-201.08499376 168.10993486 -201.12641624 157.00967565 -201.1706543 145.90942383 C-201.17337857 145.22566456 -201.17610284 144.5419053 -201.17890967 143.83742606 C-201.19258889 140.40734424 -201.20630921 136.97726258 -201.22004998 133.54718101 C-201.33406257 105.07314348 -201.44058807 76.59908153 -201.54296875 48.125 C-211.44296875 48.125 -221.34296875 48.125 -231.54296875 48.125 Z M-85.375 213.27734375 C-86.59465958 213.60116783 -86.59465958 213.60116783 -87.83895874 213.93153381 C-96.39202142 216.2636616 -104.72222502 219.179142 -113.07232666 222.14416504 C-138.63360109 231.18771232 -163.38001198 237.53456494 -190.54296875 239.125 C-190.54296875 242.095 -190.54296875 245.065 -190.54296875 248.125 C-182.54111004 248.29895616 -174.75094702 247.80118496 -166.80078125 246.9140625 C-165.59455109 246.78190338 -164.38832092 246.64974426 -163.14553833 246.51358032 C-148.84673904 244.89375007 -134.6363355 242.70267126 -120.41796875 240.5 C-116.42964976 239.88558198 -112.44083348 239.27448343 -108.45169067 238.66543579 C-106.00256477 238.29111128 -103.5538611 237.91400883 -101.10568237 237.53353882 C-91.66842418 236.0847021 -82.36078246 234.98558935 -72.80859375 234.88671875 C-72.01625336 234.87697021 -71.22391296 234.86722168 -70.40756226 234.85717773 C-51.64580516 234.67358767 -33.73894109 234.87013347 -15.6953125 240.64453125 C-14.53104736 241.01348511 -14.53104736 241.01348511 -13.34326172 241.38989258 C-11.91042569 241.86057437 -10.48705069 242.36180451 -9.07861328 242.90112305 C-6.34370436 243.84976175 -4.27613023 244.40376055 -1.51904297 243.35546875 C0.66024372 242.16036673 0.66024372 242.16036673 3.45703125 240.125 C1.8150688 238.42830547 0.14924395 236.77127027 -1.54296875 235.125 C-2.23648438 234.44695312 -2.93 233.76890625 -3.64453125 233.0703125 C-26.89702149 211.18116045 -55.06230048 205.17626574 -85.375 213.27734375 Z M-108.15063477 248.75732422 C-115.87480989 249.94444614 -123.60689081 251.08055545 -131.33779907 252.22283936 C-133.42468607 252.53139684 -135.5114188 252.84099959 -137.59799194 253.15167236 C-155.20629094 255.76697751 -172.79241733 257.78454655 -190.54296875 259.125 C-190.54296875 262.425 -190.54296875 265.725 -190.54296875 269.125 C-134.44296875 269.125 -78.34296875 269.125 -20.54296875 269.125 C-19.22296875 265.165 -17.90296875 261.205 -16.54296875 257.125 C-15.55296875 255.475 -14.56296875 253.825 -13.54296875 252.125 C-44.19446976 241.4565447 -76.57513926 243.87283234 -108.15063477 248.75732422 Z M44.45703125 251.125 C43.79703125 251.785 43.13703125 252.445 42.45703125 253.125 C43.05515625 253.90875 43.65328125 254.6925 44.26953125 255.5 C46.45703125 259.125 46.45703125 259.125 49.45703125 269.125 C105.88703125 269.125 162.31703125 269.125 220.45703125 269.125 C220.45703125 265.825 220.45703125 262.525 220.45703125 259.125 C219.64588867 259.06095978 218.83474609 258.99691956 217.99902344 258.93093872 C196.43699715 257.19114858 175.11657427 254.56558391 153.72991943 251.3416748 C149.11519673 250.64796075 144.49868703 249.96624741 139.8822937 249.28375435 C136.30444349 248.75475202 132.72692237 248.22385542 129.15039062 247.68600464 C101.34597381 243.53032901 71.46230456 241.33942233 44.45703125 251.125 Z M-4.41796875 258.0625 C-8.14449255 263.16096439 -8.14449255 263.16096439 -9.54296875 269.125 C6.29703125 269.125 22.13703125 269.125 38.45703125 269.125 C35.66113858 260.73732198 32.36219533 255.95893931 24.71875 251.54296875 C14.34925421 247.03503226 3.00000823 249.7692455 -4.41796875 258.0625 Z " fill="#000000" transform="translate(241.54296875,192.875)"/>
<path d="M0 0 C9.78838046 5.89602112 14.29668823 14.76120183 18.5 25.0625 C20.66100182 23.98450605 22.81880719 22.90083 24.97265625 21.80859375 C26.25462891 21.16083984 26.25462891 21.16083984 27.5625 20.5 C28.84833984 19.84837891 28.84833984 19.84837891 30.16015625 19.18359375 C36.95656703 15.92721663 45.14674484 15.84501391 52.36328125 17.86328125 C60.07783019 21.35462455 65.32530885 27.204177 69.4375 34.5 C72.41061649 44.46868469 71.68870173 53.19609436 67.27734375 62.6953125 C65.2676854 66.26679446 63.30452644 69.34284114 60.2315979 72.09161377 C55.56363008 76.28743674 53.03545406 79.70034217 52.55826378 86.10665512 C52.47297496 89.26479344 52.48835947 92.40890405 52.5771904 95.5668869 C52.64980375 98.15813036 52.66655325 100.7447713 52.67007446 103.3369751 C52.6880826 108.82991382 52.77954149 114.32045376 52.875 119.8125 C52.97672414 126.1952377 53.047974 132.57669891 53.06587601 138.96024323 C53.08562384 141.50643326 53.14881551 144.04906676 53.21469116 146.59442139 C53.3635638 157.69688364 53.3635638 157.69688364 51.01730347 161.40719604 C49.23134438 162.97878225 47.6323428 164.0268079 45.5 165.0625 C44.41460937 165.71476563 43.32921875 166.36703125 42.2109375 167.0390625 C24.23569539 175.92144209 6.80863492 178.48367501 -13.0625 178.4375 C-13.90183075 178.43728851 -14.7411615 178.43707703 -15.60592651 178.43685913 C-28.25141383 178.40504981 -40.34098909 177.8575477 -52.5 174.0625 C-53.716875 173.68867188 -54.93375 173.31484375 -56.1875 172.9296875 C-63.57945326 170.34592606 -70.19216469 166.69996777 -76.5 162.0625 C-77.03461853 161.68780579 -77.56923706 161.31311157 -78.12005615 160.92706299 C-80.25426134 158.04335145 -79.88104833 155.02712407 -79.82128906 151.58105469 C-79.82023666 150.82132858 -79.81918427 150.06160248 -79.81809998 149.27885437 C-79.81449201 147.6288068 -79.80433533 145.9787636 -79.78842926 144.32878876 C-79.76544229 141.71358879 -79.76430371 139.09923406 -79.76971436 136.48394775 C-79.78239232 129.04849328 -79.76548368 121.61348368 -79.70947266 114.17822266 C-79.6767503 109.62921848 -79.67809857 105.0812547 -79.70049286 100.53220367 C-79.70223762 98.80189683 -79.69101949 97.07152494 -79.66638947 95.34139252 C-79.22752749 86.07199035 -79.22752749 86.07199035 -82.02984619 77.51261902 C-83.76297738 75.78153355 -85.49761812 74.45865536 -87.5 73.0625 C-94.2596798 64.04581302 -99.05537985 54.42132216 -98.5 42.9375 C-97.1663566 34.09856552 -92.57958823 26.47630277 -85.5 21.0625 C-78.43074 16.3073291 -70.78885877 16.12058423 -62.5 17.0625 C-56.34419025 18.7018189 -50.91280449 21.76774944 -45.5 25.0625 C-45.29246094 24.44503906 -45.08492187 23.82757812 -44.87109375 23.19140625 C-40.97833103 12.4903807 -34.55145136 4.09517857 -24.23828125 -1.0703125 C-16.85113942 -3.40974971 -7.09110202 -3.19816421 0 0 Z M-27.5 15.0625 C-31.84600107 20.91326681 -34.56236104 27.07408213 -36.5 34.0625 C-36.69335938 34.74957031 -36.88671875 35.43664062 -37.0859375 36.14453125 C-37.26382813 36.77746094 -37.44171875 37.41039063 -37.625 38.0625 C-38.5 41.0625 -38.5 41.0625 -39.5 42.0625 C-42.0625 42.625 -42.0625 42.625 -45.5 42.0625 C-47.64808874 40.23773183 -49.49818288 38.2416504 -51.41015625 36.171875 C-56.42276154 31.11242293 -62.14651023 27.95914563 -69.3125 27.75 C-74.18624531 27.81375539 -76.76928063 28.76558521 -80.5 32.0625 C-85.55563981 37.44785545 -86.86330806 40.80066919 -86.77734375 48.1171875 C-86.0340494 56.01076415 -81.0841433 64.19274981 -75.03799152 69.29666901 C-71.85175365 72.07426827 -70.61364653 73.46407986 -69.80107117 77.74279785 C-69.79344365 79.12883087 -69.81828202 80.5152971 -69.86987305 81.90039062 C-69.8756134 83.04304634 -69.8756134 83.04304634 -69.88146973 84.20878601 C-69.89309804 85.85399027 -69.91823201 87.49914373 -69.95551109 89.14396667 C-70.01242524 91.7511133 -70.02907948 94.35576945 -70.03486633 96.96350098 C-70.05889303 104.37214467 -70.15843371 111.77933587 -70.27661133 119.18701172 C-70.34626414 123.72645702 -70.37214136 128.26453809 -70.37244606 132.80448914 C-70.38191287 134.53018876 -70.40871416 136.25588573 -70.45337486 137.98103333 C-71.05812311 147.27460382 -71.05812311 147.27460382 -67.54753113 155.43025208 C-65.23415267 157.00496013 -63.11218221 158.07922739 -60.5 159.0625 C-59.45714844 159.58199219 -58.41429687 160.10148438 -57.33984375 160.63671875 C-30.73681767 170.84110964 3.96418027 171.7595438 30.45581055 160.3737793 C32.142277 159.61451524 33.82143993 158.83908683 35.5 158.0625 C36.32242188 157.753125 37.14484375 157.44375 37.9921875 157.125 C40.2385357 156.04242255 41.10629382 155.11573298 42.5 153.0625 C43.06677225 147.66181443 42.90025227 142.46908223 42.5 137.0625 C39.45067162 138.05456036 36.43924315 139.08607148 33.44921875 140.24609375 C18.83338999 145.86487343 4.42886394 147.5762066 -11.13891602 147.45361328 C-13.56518513 147.43748215 -15.98979522 147.45360024 -18.41601562 147.47265625 C-41.62219636 147.50140182 -41.62219636 147.50140182 -50.5 143.0625 C-50.83 128.2125 -51.16 113.3625 -51.5 98.0625 C-48.2 98.0625 -44.9 98.0625 -41.5 98.0625 C-41.5 110.2725 -41.5 122.4825 -41.5 135.0625 C-30.39565016 137.42027088 -30.39565016 137.42027088 -18.5 137.0625 C-18.5 124.5225 -18.5 111.9825 -18.5 99.0625 C-15.2 99.0625 -11.9 99.0625 -8.5 99.0625 C-8.5 111.6025 -8.5 124.1425 -8.5 137.0625 C3.39565016 137.42027088 3.39565016 137.42027088 14.5 135.0625 C14.5 123.1825 14.5 111.3025 14.5 99.0625 C17.8 99.0625 21.1 99.0625 24.5 99.0625 C24.5 109.9525 24.5 120.8425 24.5 132.0625 C34.44301946 129.10430114 34.44301946 129.10430114 42.5 123.0625 C43.67700471 119.35622992 43.50494755 115.89440232 43.31640625 112.0390625 C43.30689438 110.97891937 43.29738251 109.91877625 43.2875824 108.82650757 C43.25525449 105.44453229 43.16534137 102.06801861 43.0625 98.6875 C42.96486264 95.31430993 42.8813893 91.94438984 42.84812927 88.56991577 C42.82747484 86.47448887 42.77059996 84.37900541 42.67201233 82.28579712 C42.62920631 78.01508579 42.66783727 75.1903714 45.25646973 71.68186951 C47.25876764 69.68829974 49.34374572 67.88504398 51.5 66.0625 C53.50975374 63.39899892 53.50975374 63.39899892 54.875 60.875 C55.33648437 60.07707031 55.79796875 59.27914062 56.2734375 58.45703125 C59.47323613 52.21029061 60.32466248 47.0618228 59.5 40.0625 C56.98079338 34.83030164 52.72925942 30.67712971 47.5 28.0625 C40.58476751 27.27843089 35.20491504 28.01041081 29.5 32.0625 C25.68541371 35.23854564 22.01059118 38.55190882 18.5 42.0625 C16.94051458 42.21936249 15.37457332 42.31326639 13.80859375 42.37890625 C12.39223633 42.44174805 12.39223633 42.44174805 10.94726562 42.50585938 C9.95404297 42.54517578 8.96082031 42.58449219 7.9375 42.625 C6.94041016 42.66818359 5.94332031 42.71136719 4.91601562 42.75585938 C2.44418889 42.86230167 -0.0278866 42.96293759 -2.5 43.0625 C-2.5 39.7625 -2.5 36.4625 -2.5 33.0625 C1.13 33.0625 4.76 33.0625 8.5 33.0625 C7.37093278 24.13499178 3.11616239 16.61923916 -3.984375 11.0859375 C-11.7516374 5.84103351 -21.62999874 8.45710708 -27.5 15.0625 Z " fill="#000000" transform="translate(269.5,1.9375)"/>
<path d="M0 0 C8.51993028 4.96449784 13.73981844 12.90253488 16.2421875 22.328125 C18.2562974 35.91386628 17.55003104 49.69883771 9.34375 61.12109375 C6.16538001 64.89540811 3.14418152 67.09712463 -1.34375 69.12109375 C-2.00375 69.12109375 -2.66375 69.12109375 -3.34375 69.12109375 C-3.34375 87.27109375 -3.34375 105.42109375 -3.34375 124.12109375 C-6.64375 124.12109375 -9.94375 124.12109375 -13.34375 124.12109375 C-13.34375 105.97109375 -13.34375 87.82109375 -13.34375 69.12109375 C-15.32375 68.46109375 -17.30375 67.80109375 -19.34375 67.12109375 C-27.07624318 62.71610788 -30.81597175 54.41926052 -33.1953125 46.16796875 C-35.45105444 34.9193356 -34.93871975 22.33267788 -29.34375 12.12109375 C-22.05279283 2.19652088 -12.74514774 -4.7794304 0 0 Z M-19.640625 18.1015625 C-24.17560378 27.12222682 -24.16583087 36.78370557 -21.4296875 46.34765625 C-19.52527937 51.21143241 -16.87554012 55.58921296 -12.3359375 58.3359375 C-9.29442058 59.53465299 -7.44091934 59.06920681 -4.34375 58.12109375 C0.65835579 54.07177001 4.4930934 48.53507159 5.65625 42.12109375 C6.32730499 32.15427701 6.79059579 22.28728143 0.04296875 14.18359375 C-2.65683618 11.59752783 -4.69731591 10.28270227 -8.34375 9.37109375 C-13.50661461 10.6618099 -16.74996785 13.68721558 -19.640625 18.1015625 Z " fill="#000000" transform="translate(402.34375,231.87890625)"/>
<path d="M0 0 C3.3 0 6.6 0 10 0 C10.01981934 0.84594727 10.03963867 1.69189453 10.06005859 2.56347656 C10.13908144 5.76193702 10.22579336 8.9600797 10.31738281 12.15820312 C10.35520032 13.53117098 10.39012652 14.90422215 10.421875 16.27734375 C10.32728244 35.50073452 10.32728244 35.50073452 18.9375 51.9375 C21.44560633 53.22955478 23.16225469 53.86486927 26 54 C31.18072386 52.20260601 33.38923113 49.75532901 36 45 C39.98937501 35.55148024 39.27022253 24.53359876 39.5625 14.4375 C39.60579176 13.03319297 39.64940904 11.62889594 39.69335938 10.22460938 C39.79876511 6.81649049 39.90088982 3.4083068 40 0 C43.3 0 46.6 0 50 0 C50.07471359 5.51347971 50.12886615 11.02665822 50.16479492 16.54052734 C50.17978865 18.41232443 50.2001905 20.28408694 50.22631836 22.15576172 C50.58060701 48.20639768 50.58060701 48.20639768 41 59 C33.65154639 65 33.65154639 65 30 65 C30 83.15 30 101.3 30 120 C26.7 120 23.4 120 20 120 C20 101.85 20 83.7 20 65 C18.02 64.34 16.04 63.68 14 63 C6.96499139 58.11856545 2.96752529 51.54764687 0.59985352 43.36889648 C-0.80390417 35.48511451 -0.29888183 27.3538621 -0.1875 19.375 C-0.17242856 17.49350027 -0.1587445 15.6119889 -0.14648438 13.73046875 C-0.11366753 9.1533547 -0.06202067 4.57680769 0 0 Z " fill="#000000" transform="translate(309,236)"/>
<path d="M0 0 C12.85788126 -0.52038643 25.66891075 3.09385198 37.31640625 8.21875 C36.18186694 11.69863948 35.05423712 14.99134982 33.31640625 18.21875 C27.64525403 17.39008849 22.32949624 15.80630313 16.8515625 14.15625 C-2.70188396 8.97080563 -22.67330051 14.68850664 -41.24609375 21.03125 C-42.78925794 21.54628898 -44.33287877 22.05996178 -45.87695312 22.57226562 C-49.70781001 23.84686167 -53.53339759 25.13646505 -57.35742188 26.43139648 C-61.34036029 27.77952583 -65.32570144 29.12036525 -69.3125 30.45703125 C-70.02958633 30.69935989 -70.74667267 30.94168854 -71.48548889 31.19136047 C-89.47706347 37.21875 -89.47706347 37.21875 -96.68359375 37.21875 C-97.34359375 33.58875 -98.00359375 29.95875 -98.68359375 26.21875 C-97.28496094 25.85265625 -95.88632813 25.4865625 -94.4453125 25.109375 C-81.36490156 21.60303333 -68.58614795 17.55723936 -55.80859375 13.09375 C-37.22867427 6.62637128 -19.66967302 1.60335035 0 0 Z " fill="#000000" transform="translate(181.68359375,335.78125)"/>
<path d="M0 0 C-1.32 3.3 -2.64 6.6 -4 10 C-9.07646856 8.98470629 -13.82537024 7.51770873 -18.74609375 5.9375 C-24.30167143 4.33685337 -29.53775532 3.82078339 -35.3125 3.75 C-36.54613281 3.72421875 -37.77976562 3.6984375 -39.05078125 3.671875 C-51.91075837 4.17593726 -64.12608824 7.67468032 -76.18484497 11.89898682 C-80.08030177 13.26254182 -83.99076214 14.58212056 -87.8984375 15.91015625 C-88.67351151 16.1749176 -89.44858551 16.43967896 -90.24714661 16.71246338 C-97.31950476 19.12461023 -104.42438847 21.41394057 -111.5625 23.625 C-112.57046631 23.94299561 -113.57843262 24.26099121 -114.61694336 24.58862305 C-121.031227 26.56145599 -127.377446 27.90795436 -134 29 C-134.66 25.37 -135.32 21.74 -136 18 C-134.67355469 17.63390625 -133.34710938 17.2678125 -131.98046875 16.890625 C-119.21992392 13.29876794 -106.69969296 9.23855693 -94.1875 4.875 C-62.84566782 -6.02821168 -31.65328546 -14.91300041 0 0 Z " fill="#000000" transform="translate(219,289)"/>
<path d="M0 0 C-2.475 4.95 -2.475 4.95 -5 10 C-6.2375 9.566875 -7.475 9.13375 -8.75 8.6875 C-10.49839026 8.1200163 -12.24851584 7.55786153 -14 7 C-14.84691406 6.71382812 -15.69382812 6.42765625 -16.56640625 6.1328125 C-22.97460053 4.21855816 -29.10485997 3.68788776 -35.75 3.625 C-36.52255127 3.61122314 -37.29510254 3.59744629 -38.09106445 3.58325195 C-51.64161381 3.6869234 -64.43153971 7.48276899 -77.10968018 11.89926147 C-81.01797309 13.25918735 -84.9398825 14.57903055 -88.859375 15.90625 C-89.63733429 16.1708049 -90.41529358 16.4353598 -91.21682739 16.70793152 C-98.32576629 19.12272299 -105.4592217 21.44601924 -112.625 23.6875 C-113.64126465 24.01387451 -114.6575293 24.34024902 -115.70458984 24.67651367 C-121.84760091 26.58009126 -127.57985222 27.56146532 -134 28 C-134.66 24.7 -135.32 21.4 -136 18 C-134.74316406 17.65710938 -133.48632812 17.31421875 -132.19140625 16.9609375 C-121.9837199 14.10602975 -111.89443917 11.01303585 -101.875 7.55859375 C-100.98820053 7.25294495 -100.10140106 6.94729614 -99.18772888 6.63238525 C-94.73978753 5.09485497 -90.29726161 3.54306669 -85.85961914 1.97607422 C-57.67596598 -7.89616397 -27.95137753 -13.97568877 0 0 Z " fill="#000000" transform="translate(219,234)"/>
<path d="M0 0 C3.3 0 6.6 0 10 0 C10 9.9 10 19.8 10 30 C6.7 30 3.4 30 0 30 C0 20.1 0 10.2 0 0 Z " fill="#000000" transform="translate(329,236)"/>
</svg>
