<?xml version="1.0" encoding="UTF-8"?>
<svg version="1.1" xmlns="http://www.w3.org/2000/svg" width="819" height="819">
<path d="M0 0 C270.27 0 540.54 0 819 0 C819 270.27 819 540.54 819 819 C548.73 819 278.46 819 0 819 C0 548.73 0 278.46 0 0 Z " fill="#FEFEFE" transform="translate(0,0)"/>
<path d="M0 0 C2.69990662 1.79993774 4.5418865 3.083773 6 6 C6.35422295 10.73432602 5.44451082 14.15779266 3.75 18.5625 C1.64269144 24.08442891 -0.14320682 29.64919576 -1.86230469 35.30444336 C-3.09181574 39.29824353 -4.36606937 43.27548554 -5.65625 47.25 C-5.88761658 47.96304794 -6.11898315 48.67609589 -6.35736084 49.41075134 C-7.30983715 52.34322151 -8.26409071 55.27511217 -9.21826172 58.20703125 C-11.52264466 65.29163245 -13.82426206 72.37456903 -16 79.5 C-18.62751334 88.10497241 -21.43403244 96.6518196 -24.21826172 105.20703125 C-26.90318045 113.46155272 -29.55287753 121.72242125 -32.08837891 130.02441406 C-33.50596672 134.65150574 -34.96899669 139.26385746 -36.4375 143.875 C-36.73825439 144.82044678 -37.03900879 145.76589355 -37.34887695 146.73999023 C-39.08921518 152.19459492 -40.86513272 157.63477031 -42.6875 163.0625 C-45.43327564 171.24633778 -47.96606006 179.48594308 -50.40625 187.765625 C-53.00175365 196.54628335 -55.71376059 205.21183275 -58.859375 213.8125 C-61.08207684 220.02388597 -62.92680931 226.3559273 -64.79003906 232.68261719 C-65.68742125 235.72770067 -66.59381306 238.77002657 -67.5 241.8125 C-67.78472168 242.7914624 -68.06944336 243.7704248 -68.36279297 244.77905273 C-72.76265919 259.50843946 -72.76265919 259.50843946 -78 263 C-81.66731219 263.47834507 -83.53165147 263.24978588 -86.8125 261.5 C-89.75349663 258.138861 -90.18904972 255.33900848 -90 251 C-88.92971226 246.17368158 -87.36190043 241.52335805 -85.78515625 236.84375 C-85.33066436 235.45582143 -84.87760361 234.0674235 -84.42588806 232.67858887 C-83.23170066 229.02022533 -82.01804982 225.36861211 -80.8001709 221.71807861 C-79.59380468 218.09069531 -78.40613968 214.45721122 -77.21679688 210.82421875 C-73.7168773 200.15063376 -70.16979234 189.49289364 -66.60644531 178.84033203 C-66.24087021 177.74676392 -65.8752951 176.6531958 -65.49864197 175.52648926 C-64.83089572 173.53120325 -64.16157393 171.53644341 -63.49024963 169.5423584 C-61.74925274 164.34859111 -60.12577781 159.14335177 -58.625 153.875 C-56.3278124 145.83516578 -53.66767632 137.92281356 -51 130 C-47.84515715 120.6272012 -44.79292352 111.24767939 -42.07421875 101.73828125 C-39.49193078 92.75191912 -36.70854744 83.84589862 -33.5 75.0625 C-31.13318772 68.54636993 -29.17314946 61.95668132 -27.25 55.30078125 C-24.24031741 44.89151185 -20.91068746 34.64331553 -17.19140625 24.46484375 C-15.56075888 19.72260042 -14.25947602 14.90905643 -12.9921875 10.05859375 C-10.73372323 3.09647753 -7.77949499 -0.9335394 0 0 Z " fill="#445D79" transform="translate(451,190)"/>
<path d="M0 0 C2.92371307 2.30353151 2.9669218 3.74009988 3.4375 7.4375 C2.90524683 11.77156156 1.98812021 12.84902913 -1 16 C-3.7317046 18.10002767 -6.60472983 19.95315236 -9.50390625 21.8125 C-10.35902298 22.37090576 -11.21413971 22.92931152 -12.09516907 23.50463867 C-13.94598773 24.71233065 -15.7991841 25.91638492 -17.65447998 27.1171875 C-22.6185082 30.33117307 -27.56384377 33.57372547 -32.51171875 36.8125 C-33.5345697 37.48104004 -34.55742065 38.14958008 -35.61126709 38.83837891 C-45.80943226 45.51112207 -55.94031543 52.28209266 -66.04611206 59.09375 C-67.92265286 60.35825958 -69.80018711 61.62129618 -71.67874146 62.8828125 C-74.30640099 64.64759059 -76.93101198 66.41680603 -79.5546875 68.1875 C-80.32468582 68.70401123 -81.09468414 69.22052246 -81.88801575 69.75268555 C-89.44814535 74.42596821 -89.44814535 74.42596821 -95 81 C-95.50751237 84.72175741 -95.33141501 86.49018817 -93.265625 89.66796875 C-89.34064 94.13148862 -84.20751532 97.13990315 -79.25866699 100.34301758 C-76.63493555 102.04161631 -74.02523811 103.7612727 -71.41455078 105.47982788 C-69.97541863 106.42712017 -68.53561975 107.37340022 -67.09521484 108.3187561 C-57.25176754 114.7870392 -47.50721692 121.4027366 -37.75 128 C-35.07088196 129.81056128 -32.39151058 131.62074467 -29.7116394 133.43019104 C-27.99183105 134.59157749 -26.27252242 135.75370433 -24.55374146 136.91661072 C-20.31025405 139.783906 -16.05421643 142.62909856 -11.77148438 145.4375 C-10.52313812 146.25891479 -10.52313812 146.25891479 -9.24957275 147.09692383 C-7.67616972 148.13044494 -6.0996274 149.15920822 -4.51947021 150.18237305 C-3.82114075 150.64168213 -3.12281128 151.10099121 -2.40332031 151.57421875 C-1.79176086 151.97213623 -1.18020142 152.37005371 -0.55010986 152.7800293 C2.29122822 155.01622513 2.97990799 156.8450045 3.4375 160.375 C3 164 3 164 0.9375 166.9375 C-2.81562497 169.57267285 -4.46836349 169.50192914 -9 169 C-11.78944959 167.75477967 -14.20624014 166.08111632 -16.703125 164.33203125 C-17.44251816 163.8334108 -18.18191132 163.33479034 -18.94371033 162.82106018 C-21.38964888 161.16645329 -23.8194635 159.48963139 -26.25 157.8125 C-27.96418781 156.64703548 -29.67945952 155.48316375 -31.39575195 154.32080078 C-35.03645753 151.85192553 -38.67096377 149.37427735 -42.30126953 146.89013672 C-48.08854262 142.93358894 -53.89886773 139.01185174 -59.71484375 135.09765625 C-60.67699799 134.45006851 -61.63915222 133.80248077 -62.63046265 133.13526917 C-64.54580716 131.84618716 -66.46118155 130.55714955 -68.37658691 129.26815796 C-71.12984797 127.41382881 -73.88127091 125.55681179 -76.63183594 123.69848633 C-77.49609695 123.11459137 -78.36035797 122.53069641 -79.25080872 121.92910767 C-80.9198251 120.80106926 -82.58852645 119.67256455 -84.25688171 118.54354858 C-87.7429734 116.18681184 -91.23271485 113.83809828 -94.75415039 111.53442383 C-95.82012451 110.83599365 -96.88609863 110.13756348 -97.984375 109.41796875 C-99.3161377 108.55594849 -99.3161377 108.55594849 -100.67480469 107.67651367 C-106.23097564 103.67040007 -111.61486537 97.88857135 -113 91 C-113.93975129 81.16785217 -113.11478671 74.49528628 -107.23242188 66.6394043 C-98.37404547 56.16609859 -84.11338036 49.03621552 -72.75 41.625 C-60.91775312 33.90184613 -49.12698747 26.14355063 -37.53515625 18.0625 C-35.71212044 16.79966947 -33.88888205 15.53713132 -32.06542969 14.27490234 C-29.45408878 12.46668599 -26.84968581 10.65149402 -24.26281738 8.80841064 C-21.88353908 7.11366807 -19.48552701 5.44920031 -17.08203125 3.7890625 C-16.39319351 3.28536133 -15.70435577 2.78166016 -14.99464417 2.26269531 C-9.92454451 -1.18090941 -5.9368025 -1.71807663 0 0 Z " fill="#445C79" transform="translate(335,236)"/>
<path d="M0 0 C2.53901388 1.28487761 4.74989344 2.57061675 7.09765625 4.140625 C7.78577896 4.58593567 8.47390167 5.03124634 9.18287659 5.49005127 C11.46667861 6.97674132 13.73441337 8.4857128 16 10 C16.78332703 10.52053955 17.56665405 11.0410791 18.37371826 11.57739258 C24.41884295 15.59986085 30.42976102 19.67199806 36.4375 23.75 C40.23200398 26.32059141 44.02787557 28.88915698 47.82421875 31.45703125 C48.76641266 32.09459854 49.70860657 32.73216583 50.67935181 33.38905334 C56.73177451 37.48022129 62.80344249 41.54086818 68.89453125 45.57421875 C70.03739845 46.33174942 70.03739845 46.33174942 71.20335388 47.10458374 C74.74290076 49.44975807 78.28571729 51.78974092 81.83374023 54.12207031 C98.59025391 65.18050782 98.59025391 65.18050782 101.875 71.75 C102.45894531 72.88695312 102.45894531 72.88695312 103.0546875 74.046875 C103.36664062 74.69140625 103.67859375 75.3359375 104 76 C104.33 76.66 104.66 77.32 105 78 C105.86387057 87.18171005 105.37961425 94.38436602 100 102 C92.76588923 110.013013 82.94565009 115.5238983 73.96777344 121.34432983 C69.07535031 124.5164322 64.19834167 127.71207433 59.3203125 130.90625 C58.31333313 131.56489548 57.30635376 132.22354095 56.26885986 132.90214539 C43.21982126 141.45236581 30.3164264 150.21885676 17.41064453 158.9831543 C16.53763702 159.57475342 15.66462952 160.16635254 14.76516724 160.77587891 C13.13711934 161.87924645 11.51045816 162.98466408 9.88546753 164.0925293 C8.80520798 164.82439453 8.80520798 164.82439453 7.703125 165.57104492 C7.08083008 165.99431564 6.45853516 166.41758636 5.81738281 166.85368347 C1.39882365 169.6406953 -1.65715296 170.66785588 -7 170 C-10.18533648 167.30471529 -10.90100875 165.61594555 -11.5625 161.5 C-10.76903193 156.56286531 -8.12347777 154.5937976 -4.1882019 151.64013672 C-2.03036825 150.12290326 0.15249627 148.65020799 2.34765625 147.1875 C3.59081352 146.34989136 3.59081352 146.34989136 4.85908508 145.49536133 C7.58983965 143.65797285 10.32610115 141.82896955 13.0625 140 C14.96914128 138.71909009 16.87555054 137.43783475 18.78173828 136.15625 C28.96923857 129.31755119 39.19624353 122.54069265 49.45703125 115.8125 C50.46196121 115.1529834 51.46689117 114.4934668 52.50227356 113.81396484 C57.36021359 110.62711946 62.22284434 107.44786846 67.09399414 104.28125 C68.86224349 103.12515532 70.63039639 101.96891311 72.3984375 100.8125 C73.19864822 100.29598877 73.99885895 99.77947754 74.82331848 99.24731445 C81.95772757 94.65766623 81.95772757 94.65766623 87 88 C87.42283566 83.24309886 86.87040079 80.80488502 84 77 C81.33813776 74.84335387 78.48058522 73.02715465 75.59375 71.1875 C74.73726364 70.62909424 73.88077728 70.07068848 72.99833679 69.49536133 C71.14226096 68.28662344 69.28309945 67.08261345 67.42123413 65.8828125 C62.44012301 62.67235491 57.48165296 59.42719699 52.51953125 56.1875 C51.49338211 55.51895996 50.46723297 54.85041992 49.4099884 54.16162109 C38.25928246 46.88782359 27.21745046 39.45514657 16.1875 32 C14.35027478 30.76039537 12.51303557 29.5208115 10.67578125 28.28125 C8.96468468 27.12523542 7.25373913 25.96899725 5.54296875 24.8125 C4.77812668 24.29598877 4.01328461 23.77947754 3.2252655 23.24731445 C1.14537354 21.83840372 -0.92908555 20.42206754 -3 19 C-3.67622406 18.53770996 -4.35244812 18.07541992 -5.04916382 17.59912109 C-9.88144711 14.23710577 -9.88144711 14.23710577 -11 12 C-11.49512681 7.62637986 -11.49223866 5.68044756 -8.875 2.0625 C-5.39525853 -0.43383627 -4.20334237 -0.4992825 0 0 Z " fill="#445C79" transform="translate(491,235)"/>
<path d="M0 0 C7.09821773 4.50283416 11.13996389 12.23438295 13.9609375 19.9375 C15.75860254 30.50240114 14.15916319 40.09852915 7.9609375 48.9375 C3.1235662 55.13925808 -2.65568534 58.47637428 -10.0390625 60.9375 C-20.93261122 61.80304871 -29.20592385 61.38286388 -38.05859375 54.328125 C-44.56403565 48.35681412 -48.41270907 40.24945888 -49.4453125 31.4921875 C-49.73548295 20.10299744 -47.03167137 12.04192124 -39.4140625 3.5 C-27.43809985 -7.44749258 -13.70042677 -7.1389197 0 0 Z " fill="#494949" transform="translate(489.0390625,527.0625)"/>
<path d="M0 0 C38.34794521 0 38.34794521 0 47.55859375 8.42578125 C53.91344856 15.06589139 56.20240211 22.94310426 56.5 32 C56.17800045 41.81025304 53.14923433 51.02513724 46 58 C32.25498128 67.99637725 16.90570108 65 0 65 C0 43.55 0 22.1 0 0 Z " fill="#494949" transform="translate(152,523)"/>
<path d="M0 0 C5.445 -0.0825 10.89 -0.165 16.5 -0.25 C18.20220703 -0.28641602 19.90441406 -0.32283203 21.65820312 -0.36035156 C35.6686291 -0.53827589 35.6686291 -0.53827589 42 4 C44.0234375 6 44.0234375 6 45.375 8 C45.83648438 8.66 46.29796875 9.32 46.7734375 10 C50.11685221 15.45168258 50.88696771 19.60834608 50 26 C47.71290486 32.78275855 44.54557257 36.66032064 39 41 C39.42410156 41.69150146 39.84820313 42.38300293 40.28515625 43.09545898 C42.19239173 46.20807777 44.09623862 49.32275527 46 52.4375 C46.66773438 53.52611328 47.33546875 54.61472656 48.0234375 55.73632812 C48.65507813 56.77080078 49.28671875 57.80527344 49.9375 58.87109375 C50.81728516 60.30859985 50.81728516 60.30859985 51.71484375 61.77514648 C53 64 53 64 53 65 C48.05 65 43.1 65 38 65 C37.46890625 64.05898438 36.9378125 63.11796875 36.390625 62.1484375 C35.67720096 60.89055828 34.96365265 59.63274953 34.25 58.375 C33.90195312 57.75753906 33.55390625 57.14007812 33.1953125 56.50390625 C31.47425819 53.47612553 29.71167093 50.53236215 27.734375 47.6640625 C26 45 26 45 26 43 C21.71 43 17.42 43 13 43 C13 50.26 13 57.52 13 65 C8.71 65 4.42 65 0 65 C0 43.55 0 22.1 0 0 Z " fill="#4A4A4A" transform="translate(625,523)"/>
<path d="M0 0 C5.28 -0.103125 10.56 -0.20625 16 -0.3125 C17.65 -0.35802002 19.3 -0.40354004 21 -0.45043945 C28.64390835 -0.57377794 35.17782514 -0.61388581 41 5 C45.76823605 9.81636868 48.28652795 13.91995807 48.375 20.75 C48.24238154 28.00865042 46.228496 32.28966703 41.6875 37.8125 C35.24386937 43.05731563 29.57461515 43.41069887 21.5625 43.1875 C16.8290625 43.0946875 16.8290625 43.0946875 12 43 C12 50.26 12 57.52 12 65 C8.04 65 4.08 65 0 65 C0 43.55 0 22.1 0 0 Z " fill="#474747" transform="translate(513,523)"/>
<path d="M0 0 C14.85 0 29.7 0 45 0 C45 3.63 45 7.26 45 11 C34.44 11 23.88 11 13 11 C13 16.28 13 21.56 13 27 C21.91 27 30.82 27 40 27 C40 30.3 40 33.6 40 37 C31.09 37 22.18 37 13 37 C13 42.61 13 48.22 13 54 C23.56 54 34.12 54 45 54 C45 57.63 45 61.26 45 65 C30.15 65 15.3 65 0 65 C0 43.55 0 22.1 0 0 Z " fill="#494949" transform="translate(570,523)"/>
<path d="M0 0 C14.52 0 29.04 0 44 0 C44 3.63 44 7.26 44 11 C33.44 11 22.88 11 12 11 C12 16.28 12 21.56 12 27 C21.24 27 30.48 27 40 27 C40 30.3 40 33.6 40 37 C30.76 37 21.52 37 12 37 C12 42.61 12 48.22 12 54 C22.89 54 33.78 54 45 54 C45 57.63 45 61.26 45 65 C30.15 65 15.3 65 0 65 C0 43.55 0 22.1 0 0 Z " fill="#464646" transform="translate(335,523)"/>
<path d="M0 0 C14.52 0 29.04 0 44 0 C44 3.63 44 7.26 44 11 C33.44 11 22.88 11 12 11 C12 16.28 12 21.56 12 27 C21.24 27 30.48 27 40 27 C40 30.3 40 33.6 40 37 C30.76 37 21.52 37 12 37 C12 42.61 12 48.22 12 54 C22.89 54 33.78 54 45 54 C45 57.63 45 61.26 45 65 C30.15 65 15.3 65 0 65 C0 43.55 0 22.1 0 0 Z " fill="#464646" transform="translate(218,523)"/>
<path d="M0 0 C4.29 0 8.58 0 13 0 C13.37286133 1.03294189 13.74572266 2.06588379 14.12988281 3.13012695 C15.53128337 7.01233513 16.93285408 10.89448186 18.33447266 14.77661133 C18.9377082 16.44749336 19.54089939 18.11839141 20.14404297 19.78930664 C23.4194299 28.86316048 26.69591771 37.93654302 30 47 C34.00679813 36.80852774 37.6896164 26.51999467 41.3125 16.1875 C41.86766512 14.60866297 42.42300265 13.02988655 42.97851562 11.45117188 C44.32099252 7.63480814 45.6611561 3.81763968 47 0 C51.29 0 55.58 0 60 0 C59.21590742 3.92046288 58.32261127 7.04271437 56.890625 10.71875 C56.25253906 12.36617187 56.25253906 12.36617187 55.6015625 14.046875 C54.93253906 15.75617187 54.93253906 15.75617187 54.25 17.5 C53.81945312 18.60859375 53.38890625 19.7171875 52.9453125 20.859375 C52.07060734 23.11160984 51.19453398 25.36331374 50.31713867 27.61450195 C46.73148641 36.83085782 43.20442023 46.06974001 39.6875 55.3125 C39.32849609 56.25544922 38.96949219 57.19839844 38.59960938 58.16992188 C37.73287664 60.44653987 36.86640865 62.72325865 36 65 C32.37 65 28.74 65 25 65 C19.37205372 51.26726067 13.75335525 37.53626698 8.42578125 23.68359375 C7.23474605 20.6064809 6.00526951 17.55119818 4.75 14.5 C2.83257561 9.75602758 1.40520932 4.91823262 0 0 Z " fill="#494949" transform="translate(267,523)"/>
<path d="M0 0 C5.696379 2.64474739 9.65793429 7.12414491 12.3125 12.8125 C14.05615522 20.89671966 13.28905979 28.64653035 8.8984375 35.79296875 C5.50692257 40.2238189 1.99855333 42.53832538 -3.51171875 43.38671875 C-9.79315251 43.78095099 -14.11109051 42.75068799 -19.1171875 38.875 C-24.45620496 33.55813614 -25.27863102 27.86218315 -25.625 20.5 C-25.37850941 11.72317431 -22.45030839 7.45030839 -16.4375 1.4375 C-11.01766713 -0.82897556 -5.78305 -0.72288125 0 0 Z " fill="#FCFCFC" transform="translate(478,534)"/>
<path d="M0 0 C4.29 0 8.58 0 13 0 C13 17.82 13 35.64 13 54 C23.89 54 34.78 54 46 54 C46 57.63 46 61.26 46 65 C30.82 65 15.64 65 0 65 C0 43.55 0 22.1 0 0 Z " fill="#4A4A4A" transform="translate(390,523)"/>
<path d="M0 0 C18.37837838 0 18.37837838 0 24 4 C29.44603343 9.73266677 30.44173388 14.31258794 30.43603516 22.13598633 C30.26065058 28.32616245 28.75276166 33.08123667 25 38 C17.05116649 44.65106477 11.01031789 43 0 43 C0 28.81 0 14.62 0 0 Z " fill="#FDFDFD" transform="translate(165,534)"/>
<path d="M0 0 C2.536875 -0.061875 5.07375 -0.12375 7.6875 -0.1875 C8.47729248 -0.21481201 9.26708496 -0.24212402 10.08081055 -0.27026367 C14.60318145 -0.32344113 17.43303549 0.18325747 21 3 C22.40457737 5.80915474 22.24895157 7.88810534 22 11 C20.5 13.375 20.5 13.375 19 15 C19.66 15.495 20.32 15.99 21 16.5 C23.43427585 19.54284481 23.50376222 21.23095624 23.62890625 25 C22.58863971 28.30817683 20.97077126 29.27847614 18 31 C14.8721759 31.46882782 11.84090304 31.37842041 8.6875 31.25 C4.3871875 31.12625 4.3871875 31.12625 0 31 C0 20.77 0 10.54 0 0 Z " fill="#657A93" transform="translate(350,618)"/>
<path d="M0 0 C14 0 14 0 20 3 C22.45717992 6.68576988 22.69957317 9.71927846 22 14 C20.125 17 20.125 17 18 19 C17.34 19 16.68 19 16 19 C19.465 24.94 19.465 24.94 23 31 C21.68 31 20.36 31 19 31 C17.6484375 28.84765625 17.6484375 28.84765625 16.375 26.0625 C14.2579534 22.08310768 14.2579534 22.08310768 10.390625 20.11328125 C7.31920771 19.79630801 7.31920771 19.79630801 3 20 C3 23.63 3 27.26 3 31 C2.01 31 1.02 31 0 31 C0 20.77 0 10.54 0 0 Z " fill="#617790" transform="translate(617,618)"/>
<path d="M0 0 C2.866875 -0.0825 5.73375 -0.165 8.6875 -0.25 C9.58170654 -0.28641602 10.47591309 -0.32283203 11.3972168 -0.36035156 C15.44692845 -0.41666694 17.50103852 -0.31241573 21.01953125 1.890625 C24.11052988 5.18281289 24.27992791 7.45674602 24.22265625 11.96484375 C23.90143435 14.90092462 22.81916075 16.70920498 21 19 C17.89914429 21.06723714 17.27068319 21.24497423 13.76953125 21.1953125 C13.04612549 21.19031738 12.32271973 21.18532227 11.57739258 21.18017578 C10.66497803 21.16196777 9.75256348 21.14375977 8.8125 21.125 C5.904375 21.08375 2.99625 21.0425 0 21 C0 14.07 0 7.14 0 0 Z " fill="#FDFDFD" transform="translate(638,534)"/>
<path d="M0 0 C2.866875 -0.103125 5.73375 -0.20625 8.6875 -0.3125 C10.02880981 -0.38078003 10.02880981 -0.38078003 11.3972168 -0.45043945 C15.65042999 -0.52437105 17.50037151 -0.36144699 21.05078125 2.20703125 C24.03423301 6.48191703 23.7755194 9.9756243 23 15 C20.97368421 19.51315789 20.97368421 19.51315789 18 21 C16.62451844 21.08308638 15.24514204 21.10736016 13.8671875 21.09765625 C13.14128418 21.09515869 12.41538086 21.09266113 11.66748047 21.09008789 C10.74596191 21.08098389 9.82444336 21.07187988 8.875 21.0625 C5.94625 21.041875 3.0175 21.02125 0 21 C0 14.07 0 7.14 0 0 Z " fill="#F9F9F9" transform="translate(525,534)"/>
<path d="M0 0 C3 1 3 1 4.44213867 3.77563477 C4.9291626 4.98533936 5.41618652 6.19504395 5.91796875 7.44140625 C6.18007645 8.08367661 6.44218414 8.72594696 6.7122345 9.38768005 C7.54776956 11.44190075 8.36773852 13.50194063 9.1875 15.5625 C9.75093966 16.95548848 10.31538058 18.34807242 10.88085938 19.74023438 C12.26555928 23.15553677 13.63636494 26.57622413 15 30 C13.68 30.33 12.36 30.66 11 31 C9.515 26.05 9.515 26.05 8 21 C3.38 21.33 -1.24 21.66 -6 22 C-7.98 26.455 -7.98 26.455 -10 31 C-10.99 31 -11.98 31 -13 31 C-10.86156945 24.14686945 -8.22938884 17.58350975 -5.375 11 C-4.96765625 10.04738281 -4.5603125 9.09476563 -4.140625 8.11328125 C-1.13375235 1.13375235 -1.13375235 1.13375235 0 0 Z " fill="#687D95" transform="translate(394,618)"/>
<path d="M0 0 C0.99 0 1.98 0 3 0 C4.85864229 2.08384128 6.52496695 4.14282385 8.1875 6.375 C9.16624639 7.65657108 10.14541656 8.93781862 11.125 10.21875 C11.60839844 10.85683594 12.09179688 11.49492188 12.58984375 12.15234375 C14.58088748 14.76110742 16.63023952 17.31811912 18.6875 19.875 C19.780625 21.23625 20.87375 22.5975 22 24 C22.33 16.41 22.66 8.82 23 1 C23.99 1 24.98 1 26 1 C26 10.9 26 20.8 26 31 C21.83049394 29.95762349 21.37462342 29.7154819 18.90625 26.578125 C18.35066406 25.88203125 17.79507813 25.1859375 17.22265625 24.46875 C16.36994141 23.37046875 16.36994141 23.37046875 15.5 22.25 C14.93152344 21.53328125 14.36304688 20.8165625 13.77734375 20.078125 C12.67430388 18.68588906 11.57643815 17.28953444 10.484375 15.88867188 C9.21500793 14.27356931 7.90799455 12.68817528 6.59375 11.109375 C5 9 5 9 5 7 C4.34 7 3.68 7 3 7 C3 14.92 3 22.84 3 31 C2.01 31 1.02 31 0 31 C0 20.77 0 10.54 0 0 Z " fill="#627890" transform="translate(511,618)"/>
<path d="M0 0 C0.99 0 1.98 0 3 0 C4.85864229 2.08384128 6.52496695 4.14282385 8.1875 6.375 C9.16624639 7.65657108 10.14541656 8.93781862 11.125 10.21875 C11.60839844 10.85683594 12.09179688 11.49492188 12.58984375 12.15234375 C14.58088748 14.76110742 16.63023952 17.31811912 18.6875 19.875 C19.780625 21.23625 20.87375 22.5975 22 24 C22.33 16.41 22.66 8.82 23 1 C23.99 1 24.98 1 26 1 C26 10.9 26 20.8 26 31 C21.83049394 29.95762349 21.37462342 29.7154819 18.90625 26.578125 C18.35066406 25.88203125 17.79507812 25.1859375 17.22265625 24.46875 C16.36994141 23.37046875 16.36994141 23.37046875 15.5 22.25 C14.93152344 21.53328125 14.36304688 20.8165625 13.77734375 20.078125 C12.67430388 18.68588906 11.57643815 17.28953444 10.484375 15.88867188 C9.21500793 14.27356931 7.90799455 12.68817528 6.59375 11.109375 C5 9 5 9 5 7 C4.34 7 3.68 7 3 7 C3 14.92 3 22.84 3 31 C2.01 31 1.02 31 0 31 C0 20.77 0 10.54 0 0 Z " fill="#627890" transform="translate(295,618)"/>
<path d="M0 0 C4.42672235 2.21336118 6.49398827 4.84214962 9.375 8.6875 C10.29783006 9.90099546 11.22231434 11.11323467 12.1484375 12.32421875 C12.55239746 12.86135498 12.95635742 13.39849121 13.37255859 13.9519043 C15.82663305 17.04029772 18.43282349 20.00496074 21 23 C21.33 15.74 21.66 8.48 22 1 C22.99 1 23.98 1 25 1 C25 10.9 25 20.8 25 31 C20.22077562 29.80519391 18.91732497 27.78501553 16.1875 24 C15.36898498 22.89546605 14.54996254 21.79130796 13.73046875 20.6875 C12.37888672 18.8621875 12.37888672 18.8621875 11 17 C8.69 14.03 6.38 11.06 4 8 C3.67 15.59 3.34 23.18 3 31 C2.01 31 1.02 31 0 31 C0 20.77 0 10.54 0 0 Z " fill="#60768F" transform="translate(457,618)"/>
<path d="M0 0 C4.77922438 1.19480609 6.08267503 3.21498447 8.8125 7 C9.63101502 8.10453395 10.45003746 9.20869204 11.26953125 10.3125 C12.17058594 11.529375 13.07164062 12.74625 14 14 C16.31 16.97 18.62 19.94 21 23 C21.33 15.41 21.66 7.82 22 0 C22.99 0 23.98 0 25 0 C25 9.9 25 19.8 25 30 C20.04499334 28.76124834 18.5285509 26.33713016 15.625 22.4375 C15.16867187 21.84130859 14.71234375 21.24511719 14.2421875 20.63085938 C12.81653517 18.76269417 11.4084593 16.88116139 10 15 C8.02 12.36 6.04 9.72 4 7 C3.67 14.59 3.34 22.18 3 30 C2.01 30 1.02 30 0 30 C0 20.1 0 10.2 0 0 Z " fill="#5F758F" transform="translate(419,619)"/>
<path d="M0 0 C6.93 0 13.86 0 21 0 C21 0.99 21 1.98 21 3 C15.06 3 9.12 3 3 3 C3 6.63 3 10.26 3 14 C7.95 14 12.9 14 18 14 C18 14.99 18 15.98 18 17 C13.38 17 8.76 17 4 17 C4 20.63 4 24.26 4 28 C9.61 28 15.22 28 21 28 C21 28.99 21 29.98 21 31 C14.07 31 7.14 31 0 31 C0 20.77 0 10.54 0 0 Z " fill="#6C8097" transform="translate(213,618)"/>
<path d="M0 0 C3.0625 1.875 3.0625 1.875 5 4 C5 4.99 5 5.98 5 7 C1 5 1 5 -0.8125 3.875 C-4.08988958 2.56404417 -6.50530339 2.57082673 -10 3 C-13.12414473 5.58081521 -15.73160518 7.80004249 -16.23828125 11.953125 C-16.41774475 17.50704803 -15.73664814 20.60394337 -12 25 C-8.55181093 26.72409453 -4.77745882 26.36295868 -1 26 C1.57951684 25.06756129 1.57951684 25.06756129 3 23 C3.80946422 19.89802603 3.80946422 19.89802603 4 17 C1.69 17 -0.62 17 -3 17 C-3 16.34 -3 15.68 -3 15 C0.3 15 3.6 15 7 15 C7 19.95 7 24.9 7 30 C6.01 30 5.02 30 4 30 C3.67 29.01 3.34 28.02 3 27 C2.34 27.495 1.68 27.99 1 28.5 C-2.74890233 30.37445117 -5.92391924 30.70470551 -10 30 C-14.32795475 27.91925253 -17.09860665 25.3847017 -19.30078125 21.0546875 C-20.90193219 16.34962942 -21.09985089 11.50391586 -19.08203125 6.91015625 C-14.36722911 -0.30700043 -8.18296953 -2.24129129 0 0 Z " fill="#5E748E" transform="translate(568,619)"/>
<path d="M0 0 C6.6 0 13.2 0 20 0 C20 0.99 20 1.98 20 3 C14.39 3 8.78 3 3 3 C3 6.63 3 10.26 3 14 C7.95 14 12.9 14 18 14 C18 14.99 18 15.98 18 17 C13.05 17 8.1 17 3 17 C3 20.63 3 24.26 3 28 C8.61 28 14.22 28 20 28 C20 28.99 20 29.98 20 31 C13.4 31 6.8 31 0 31 C0 20.77 0 10.54 0 0 Z " fill="#5C728C" transform="translate(586,618)"/>
<path d="M0 0 C11.36142141 -0.49397484 11.36142141 -0.49397484 14.36328125 1.828125 C16 4 16 4 16.4375 7 C15.94127179 10.40270776 15.4576545 11.62359028 13 14 C8.61723375 14.54579904 4.43192924 14.17552195 0 14 C0 9.38 0 4.76 0 0 Z " fill="#F8F9FA" transform="translate(620,621)"/>
<path d="M0 0 C2.27057377 -0.05398987 4.54151288 -0.09278742 6.8125 -0.125 C8.07707031 -0.14820313 9.34164063 -0.17140625 10.64453125 -0.1953125 C14 0 14 0 17 2 C17.43132515 6.05445642 17.30019361 7.54970958 15 11 C12.37302936 11.22137393 9.99106036 11.28162025 7.375 11.1875 C6.66859375 11.17396484 5.9621875 11.16042969 5.234375 11.14648438 C3.48925872 11.1111104 1.74453392 11.05730221 0 11 C0 7.37 0 3.74 0 0 Z " fill="#F9FAFB" transform="translate(353,635)"/>
<path d="M0 0 C0.99 0 1.98 0 3 0 C3.29769287 0.72179443 3.59538574 1.44358887 3.90209961 2.18725586 C5.24466362 5.4384053 6.5910287 8.68796694 7.9375 11.9375 C8.40607422 13.07380859 8.87464844 14.21011719 9.35742188 15.38085938 C9.80537109 16.46044922 10.25332031 17.54003906 10.71484375 18.65234375 C11.12855225 19.65257568 11.54226074 20.65280762 11.96850586 21.68334961 C12.79701292 23.91646275 12.79701292 23.91646275 14 25 C17.3 17.08 20.6 9.16 24 1 C24.99 1 25.98 1 27 1 C24.8197371 7.87947032 22.19745965 14.45055898 19.3125 21.0625 C18.89677734 22.02349609 18.48105469 22.98449219 18.05273438 23.97460938 C17.03848513 26.31787486 16.02085998 28.65960887 15 31 C14.01 31 13.02 31 12 31 C10.28405593 27.07029033 8.57526954 23.13757047 6.87304688 19.2019043 C6.29297474 17.86348841 5.7109555 16.52591464 5.12695312 15.18920898 C4.28782991 13.26764537 3.4557568 11.34316156 2.625 9.41796875 C2.12226563 8.26063232 1.61953125 7.1032959 1.1015625 5.91088867 C0 3 0 3 0 0 Z " fill="#637891" transform="translate(242,618)"/>
<path d="M0 0 C2.10353495 -0.0810206 4.20795952 -0.13919907 6.3125 -0.1875 C7.48425781 -0.22230469 8.65601563 -0.25710938 9.86328125 -0.29296875 C13 0 13 0 14.93359375 1.28515625 C16.73914413 4.18858708 15.70877666 6.81050505 15 10 C14 11 14 11 10.83984375 11.09765625 C8.90818359 11.08025391 8.90818359 11.08025391 6.9375 11.0625 C5.64714844 11.05347656 4.35679687 11.04445313 3.02734375 11.03515625 C2.02832031 11.02355469 1.02929688 11.01195312 0 11 C0 7.37 0 3.74 0 0 Z " fill="#F8F9FA" transform="translate(353,621)"/>
<path d="M0 0 C0.99 0 1.98 0 3 0 C3 9.24 3 18.48 3 28 C8.94 28 14.88 28 21 28 C21 28.99 21 29.98 21 31 C14.07 31 7.14 31 0 31 C0 20.77 0 10.54 0 0 Z " fill="#647992" transform="translate(183,618)"/>
<path d="M0 0 C0.99 0.33 1.98 0.66 3 1 C4.38671875 3.94140625 4.38671875 3.94140625 5.6875 7.5625 C6.34298828 9.35880859 6.34298828 9.35880859 7.01171875 11.19140625 C7.50091797 12.58166016 7.50091797 12.58166016 8 14 C6.68 14 5.36 14 4 14 C2.515 9.05 2.515 9.05 1 4 C-3.62 4.33 -8.24 4.66 -13 5 C-14.32 7.97 -15.64 10.94 -17 14 C-17.99 14 -18.98 14 -20 14 C-19.5991428 12.57877902 -19.17849837 11.16313294 -18.75 9.75 C-18.51796875 8.96109375 -18.2859375 8.1721875 -18.046875 7.359375 C-16.74445788 4.42407671 -15.60471143 2.90073537 -13 1 C-9.765625 0.828125 -9.765625 0.828125 -6.25 1.25 C-4.49429687 1.44335938 -4.49429687 1.44335938 -2.703125 1.640625 C-1.81109375 1.75921875 -0.9190625 1.8778125 0 2 C0 1.34 0 0.68 0 0 Z " fill="#556D88" transform="translate(401,635)"/>
<path d="M0 0 C0.33 0 0.66 0 1 0 C1 3.63 1 7.26 1 11 C5.95 11 10.9 11 16 11 C16 11.99 16 12.98 16 14 C11.05 14 6.1 14 1 14 C1 17.63 1 21.26 1 25 C6.61 25 12.22 25 18 25 C18 25.33 18 25.66 18 26 C11.73 26 5.46 26 -1 26 C-1.08038401 17.23814286 -1.01463922 8.71502616 0 0 Z " fill="#70849A" transform="translate(588,621)"/>
<path d="M0 0 C4.30347069 3.61294244 5.23674676 8.83184396 7 14 C3.04 14 -0.92 14 -5 14 C-1.85714286 4.42857143 -1.85714286 4.42857143 0 0 Z " fill="#F5F6F8" transform="translate(394,623)"/>
<path d="M0 0 C0.99 0 1.98 0 3 0 C3 10.23 3 20.46 3 31 C2.01 31 1.02 31 0 31 C0 20.77 0 10.54 0 0 Z " fill="#657A93" transform="translate(495,618)"/>
<path d="M0 0 C0.99 0 1.98 0 3 0 C3 10.23 3 20.46 3 31 C2.01 31 1.02 31 0 31 C0 20.77 0 10.54 0 0 Z " fill="#657A93" transform="translate(279,618)"/>
<path d="M0 0 C3.3 0 6.6 0 10 0 C10 4.95 10 9.9 10 15 C9.67 15 9.34 15 9 15 C8.67 12.69 8.34 10.38 8 8 C7.67 8 7.34 8 7 8 C7 6.02 7 4.04 7 2 C4.69 2 2.38 2 0 2 C0 1.34 0 0.68 0 0 Z " fill="#71849B" transform="translate(565,634)"/>
<path d="M0 0 C0.66 0.33 1.32 0.66 2 1 C1.49287967 4.71888239 0.88391785 7.73454239 -1 11 C-1.99 11 -2.98 11 -4 11 C-3.52269162 9.5410574 -3.04308958 8.08286504 -2.5625 6.625 C-2.29566406 5.81289063 -2.02882813 5.00078125 -1.75390625 4.1640625 C-1 2 -1 2 0 0 Z " fill="#637991" transform="translate(385,638)"/>
<path d="M0 0 C0.66 0 1.32 0 2 0 C1.44894091 3.9492568 0.61064629 7.34920174 -1 11 C-1.99 11 -2.98 11 -4 11 C-3.52269162 9.5410574 -3.04308958 8.08286504 -2.5625 6.625 C-2.29566406 5.81289063 -2.02882813 5.00078125 -1.75390625 4.1640625 C-1 2 -1 2 0 0 Z " fill="#647A92" transform="translate(390,626)"/>
<path d="M0 0 C0.33 0 0.66 0 1 0 C1.48929664 7.21712538 1.48929664 7.21712538 -0.875 11 C-3 13 -3 13 -5 13 C-4.42655063 10.13275314 -4.1385485 9.1385485 -2 7 C-1.67 7 -1.34 7 -1 7 C-0.67 4.69 -0.34 2.38 0 0 Z " fill="#677C94" transform="translate(638,624)"/>
<path d="M0 0 C2.40072955 2.88087546 4.47291037 5.56404834 6 9 C4.68 9 3.36 9 2 9 C0.1875 6.75 0.1875 6.75 -1 4 C-0.6875 1.6875 -0.6875 1.6875 0 0 Z " fill="#627891" transform="translate(634,640)"/>
<path d="M0 0 C3.3866267 4.0312661 3.5714017 6.85682038 4 12 C3.01 12.33 2.02 12.66 1 13 C-0.00496852 9.98509443 -0.10335303 7.95818308 -0.0625 4.8125 C-0.05347656 3.91144531 -0.04445313 3.01039063 -0.03515625 2.08203125 C-0.02355469 1.39496094 -0.01195312 0.70789063 0 0 Z " fill="#6C8198" transform="translate(548,628)"/>
<path d="M0 0 C2.6855594 2.6855594 3.06049974 5.37621328 4 9 C3.01 9.33 2.02 9.66 1 10 C-0.83691257 6.21812119 -1.15837626 4.05431692 0 0 Z " fill="#697E96" transform="translate(251,635)"/>
<path d="M0 0 C2.46278801 2.46278801 2.99771255 4.70676982 4 8 C2.68 8 1.36 8 0 8 C-1.125 2.25 -1.125 2.25 0 0 Z " fill="#667B93" transform="translate(405,641)"/>
<path d="M0 0 C3.875 1.875 3.875 1.875 5 3 C5.04063832 4.66617115 5.042721 6.33388095 5 8 C4.34 8 3.68 8 3 8 C0 2.25 0 2.25 0 0 Z " fill="#5B728C" transform="translate(368,634)"/>
<path d="M0 0 C0 2.64 0 5.28 0 8 C-0.66 8 -1.32 8 -2 8 C-2.66 6.02 -3.32 4.04 -4 2 C-1 0 -1 0 0 0 Z " fill="#546C87" transform="translate(574,641)"/>
</svg>