<?xml version="1.0" encoding="UTF-8"?>
<svg version="1.1" xmlns="http://www.w3.org/2000/svg" width="512" height="512">
<path d="M0 0 C0.82606845 -0.00779995 1.6521369 -0.01559991 2.50323772 -0.02363622 C5.25172658 -0.04346745 7.99881708 -0.02782707 10.74731445 -0.01205444 C12.72564498 -0.01883452 14.70396919 -0.02773984 16.68228149 -0.03860474 C22.04183617 -0.06135809 27.40090846 -0.05257795 32.76047134 -0.03670931 C38.37548348 -0.02402987 43.99045495 -0.03579611 49.60546875 -0.04364014 C59.0340108 -0.05273072 68.46235686 -0.0407642 77.89086914 -0.01693726 C88.78371861 0.01027276 99.67610012 0.00145818 110.56893826 -0.02606928 C119.92969734 -0.0487761 129.29031575 -0.0519527 138.65109348 -0.03887594 C144.2382073 -0.03109013 149.82510132 -0.03001605 155.41220093 -0.04655838 C160.66551947 -0.06102662 165.91823604 -0.05093799 171.17148972 -0.0220871 C173.09674455 -0.01548892 175.02205025 -0.0173522 176.9472847 -0.02840042 C179.58093206 -0.04211789 182.21266518 -0.02486644 184.84619141 0 C185.60340327 -0.01115361 186.36061514 -0.02230722 187.14077282 -0.03379881 C193.61299925 0.08428802 198.27255081 2.66905023 202.95551014 7.07750642 C207.93899332 12.6264025 208.72159544 18.34941787 208.68379211 25.55371094 C208.68761766 26.33315146 208.69144321 27.11259198 208.69538468 27.91565192 C208.70567346 30.51794412 208.7017304 33.12001399 208.69775391 35.72232056 C208.70210268 37.59197696 208.70728638 39.46163159 208.71324158 41.33128357 C208.72662545 46.40363781 208.72721089 51.47591751 208.72467828 56.54828596 C208.72360809 60.78532371 208.72849319 65.02234641 208.7332837 69.25938094 C208.74437691 79.25696733 208.74481742 89.25451615 208.73876953 99.25210571 C208.73272988 109.5597286 208.745041 119.86721498 208.7663396 130.17481458 C208.78396347 139.03019784 208.78995569 147.88553768 208.78670186 156.74093783 C208.78489002 162.02734566 208.78751529 167.31365613 208.8014164 172.60004807 C208.81400275 177.57248441 208.81204291 182.54470821 208.79900551 187.51714134 C208.7966419 189.33920171 208.79936668 191.16127707 208.80762863 192.98332024 C208.81811623 195.47651143 208.8099796 197.96899206 208.7973175 200.4621582 C208.80469179 201.17793388 208.81206607 201.89370955 208.81966382 202.6311754 C208.75560733 208.65374492 207.48668803 214.20267592 203.52075195 218.87710571 C202.84915039 219.41593384 202.17754883 219.95476196 201.4855957 220.50991821 C200.81657227 221.06421509 200.14754883 221.61851196 199.45825195 222.18960571 C194.77313326 225.51684931 191.06062133 225.92540336 185.36517334 225.90234375 C184.13732254 225.90914042 184.13732254 225.90914042 182.88466668 225.9160744 C180.13797909 225.92874854 177.39148902 225.92709607 174.64477539 225.92544556 C172.67689254 225.931429 170.70901204 225.93823412 168.74113464 225.94580078 C163.39181888 225.96348862 158.04256708 225.96815739 152.69322491 225.96943235 C148.22763652 225.9713307 143.76206306 225.97868766 139.29648042 225.98577654 C128.75908799 226.00206937 118.22172974 226.00694475 107.68432617 226.00552368 C96.81663057 226.00432262 85.94913369 226.02541547 75.08148837 226.05701101 C65.75056485 226.08317157 56.41970622 226.09389104 47.08874631 226.09261286 C41.51611173 226.09210308 35.94365364 226.09779501 30.3710556 226.11896896 C25.12775078 226.13834702 19.88479082 226.13847861 14.64147377 226.1239357 C12.71943215 226.12184584 10.79736898 226.12655901 8.8753643 226.13865662 C6.24615682 226.15413055 3.61813523 226.14478707 0.98895264 226.12939453 C-0.14512146 226.14482522 -0.14512146 226.14482522 -1.30210614 226.16056764 C-7.67614743 226.07841539 -13.05338279 224.12970892 -17.63549805 219.59976196 C-18.09053711 218.93073853 -18.54557617 218.26171509 -19.0144043 217.57241821 C-19.7240332 216.56501587 -19.7240332 216.56501587 -20.44799805 215.53726196 C-22.88373735 211.43274626 -22.7302507 207.50932239 -22.73753357 202.89379883 C-22.74262139 202.09720938 -22.74770921 201.30061994 -22.7529512 200.47989142 C-22.76868958 197.8015883 -22.77720445 195.12331218 -22.78564453 192.44497681 C-22.79518195 190.52812529 -22.80507306 188.6112755 -22.81529236 186.69442749 C-22.84669281 180.39075772 -22.86694703 174.08707469 -22.88549805 167.78335571 C-22.88879537 166.71089364 -22.89209269 165.63843156 -22.89548993 164.53347063 C-22.92627322 154.41871041 -22.95298077 144.30394722 -22.96990871 134.18915367 C-22.99181305 121.25247955 -23.03377743 108.3162206 -23.10334629 95.37971246 C-23.15060283 86.28319825 -23.17484458 77.18679598 -23.1821056 68.09016287 C-23.18705965 62.65763936 -23.20211736 57.22558367 -23.2418499 51.79319382 C-23.27875814 46.67948397 -23.28711202 41.5665083 -23.27384377 36.45269012 C-23.27389765 34.57942134 -23.28416606 32.70611969 -23.3055954 30.83297348 C-23.48956626 13.83861031 -23.48956626 13.83861031 -18.64614964 7.42516518 C-12.68812273 2.27046487 -7.90807854 -0.11648472 0 0 Z M-7.5769043 15.63491821 C-10.4192929 20.56116635 -10.95303179 24.67532809 -10.95785522 30.30105591 C-10.9625352 31.0412209 -10.96721517 31.78138589 -10.97203696 32.54398012 C-10.98393845 35.00742148 -10.97454904 37.47030152 -10.96508789 39.93374634 C-10.96915575 41.70665307 -10.97449884 43.47955726 -10.98101807 45.25245667 C-10.99467191 50.05614143 -10.98940098 54.85963247 -10.97988081 59.66332054 C-10.97227422 64.69556568 -10.9793326 69.72779448 -10.98403931 74.76004028 C-10.98949394 83.21006237 -10.9823129 91.66000574 -10.96801758 100.11001587 C-10.95169164 109.87294273 -10.95698036 119.63568161 -10.97349679 129.39860392 C-10.98711997 137.78776102 -10.98902725 146.17686161 -10.98118079 154.56602621 C-10.97650885 159.57348301 -10.97586625 164.58085152 -10.98579025 169.58830261 C-10.99446971 174.29647666 -10.98842007 179.00440886 -10.97110748 183.71255684 C-10.96714788 185.43827984 -10.96826767 187.16402327 -10.97489548 188.88973808 C-10.98312206 191.24969171 -10.97277661 193.60887561 -10.95785522 195.96878052 C-10.95672415 197.28799248 -10.95559307 198.60720444 -10.95442772 199.96639252 C-10.51989984 204.1888502 -9.75650827 206.98073908 -7.5769043 210.63491821 C-2.71145121 213.55135281 1.77313101 214.06736826 7.33047485 214.00914001 C8.09655229 214.01311442 8.86262973 214.01708883 9.65192163 214.02118367 C12.20295458 214.03076039 14.75342652 214.019017 17.30444336 214.00723267 C19.13970648 214.00966212 20.97496828 214.01338293 22.81022644 214.01829529 C27.7832005 214.02768553 32.7559771 214.01829521 37.72893572 214.00496316 C42.93561355 213.99363309 48.14228189 213.99775729 53.34896851 213.99971008 C62.08985616 214.00059241 70.83066617 213.9895242 79.5715332 213.97109985 C89.67756214 213.94991996 99.78347746 213.94642555 109.8895241 213.95266181 C119.61411262 213.95835542 129.33866112 213.95271069 139.06324387 213.94148827 C143.20109166 213.9368436 147.33891498 213.93596784 151.47676468 213.93807411 C156.34740417 213.93995712 161.21792793 213.93185209 166.08854103 213.91601372 C167.8763805 213.91177003 169.66423171 213.91092088 171.45207405 213.91370392 C173.89140448 213.91692516 176.33038897 213.9078455 178.76968384 213.89561462 C179.83208627 213.90128361 179.83208627 213.90128361 180.91595137 213.90706712 C186.33222897 213.85898923 189.72014091 213.23773275 193.70342922 209.48867702 C195.84992533 205.92660133 195.98470146 203.0131866 195.9377594 198.97477722 C195.94470493 198.2111142 195.95165046 197.44745118 195.95880646 196.66064686 C195.97708061 194.10562965 195.9668114 191.55154054 195.95654297 188.99649048 C195.96360126 187.1631399 195.9723459 185.32979516 195.98265076 183.49645996 C196.00516483 178.51914381 196.00220025 173.54214534 195.99332929 168.56479764 C195.98822141 164.40962148 195.99551036 160.25450513 196.00280136 156.09933513 C196.01980687 146.29693407 196.01622803 136.49468866 195.99951172 126.69229126 C195.98258889 116.5793799 195.99842575 106.46690013 196.0307346 96.35403591 C196.05742429 87.67107815 196.06470819 78.98825479 196.05621952 70.30526012 C196.0512886 65.11944593 196.05351494 59.93389145 196.07400703 54.74810982 C196.09235435 49.87157746 196.08641701 44.99566625 196.06180763 40.11916733 C196.05679675 38.33013532 196.06029671 36.54105607 196.07295609 34.75206184 C196.08888177 32.30800779 196.07394274 29.8660004 196.05128479 27.42204285 C196.06312052 26.71532316 196.07495625 26.00860348 196.08715063 25.28046805 C196.01697305 21.55038016 195.38516606 19.11611531 193.13383389 16.21072292 C188.66148023 11.96099136 184.78754375 12.48728265 178.84524536 12.49447632 C178.07835321 12.4915052 177.31146106 12.48853407 176.52132976 12.48547292 C173.94967429 12.47679609 171.37806543 12.47527854 168.80639648 12.4737854 C166.96334738 12.46915657 165.12029923 12.46413182 163.2772522 12.45874023 C158.26898182 12.44562198 153.26072485 12.43917259 148.25243998 12.43472958 C145.12395834 12.43179841 141.99548037 12.42769356 138.86700058 12.4232254 C129.07995563 12.40955306 119.29291905 12.39988466 109.50586522 12.39602351 C98.20543134 12.39154084 86.90511831 12.37398211 75.60472119 12.34502292 C66.87085856 12.32341706 58.13702997 12.31331984 49.4031409 12.31198239 C44.18606285 12.31093374 38.96909843 12.30501288 33.75204849 12.28716278 C28.84531836 12.27070069 23.93878753 12.26851755 19.03203964 12.27730179 C17.231712 12.27807311 15.43137373 12.27371688 13.631073 12.26384354 C11.17211527 12.25114923 8.71386612 12.25698684 6.25491333 12.26742554 C5.54362058 12.25936913 4.83232783 12.25131273 4.09948075 12.24301219 C-0.52698178 12.28890262 -3.78247901 12.94236194 -7.5769043 15.63491821 Z " fill="#000000" transform="translate(32.576904296875,263.3650817871094)"/>
<path d="M0 0 C0.82109076 -0.00508782 1.64218152 -0.01017564 2.48815382 -0.01541764 C5.2493742 -0.03115848 8.01056838 -0.03967153 10.77182007 -0.04811096 C12.74778409 -0.05764817 14.72374642 -0.06753927 16.69970703 -0.07775879 C23.19817112 -0.10916133 29.69664808 -0.12941353 36.19515991 -0.14796448 C37.85344857 -0.15291046 37.85344857 -0.15291046 39.54523802 -0.15795636 C49.97140379 -0.18873947 60.39757243 -0.2154476 70.82377052 -0.23237514 C84.1598176 -0.2542806 97.49546198 -0.29624718 110.83134806 -0.36581272 C120.20811481 -0.41306456 129.58477295 -0.43731038 138.96165502 -0.44457203 C144.56184655 -0.44952674 150.16158435 -0.46459087 155.76164627 -0.50431633 C161.03293886 -0.54121622 166.30351922 -0.54958111 171.57491684 -0.5363102 C173.50623678 -0.53636409 175.43758856 -0.54663799 177.36878967 -0.56806183 C194.98363693 -0.75297478 194.98363693 -0.75297478 201.50435448 4.56135464 C206.8636732 10.17528106 208.18016519 15.21053684 208.17826843 22.87051392 C208.18194512 23.66372537 208.18562181 24.45693683 208.18940991 25.274185 C208.20045233 27.94101082 208.20429155 30.60779768 208.20809937 33.27464294 C208.21436362 35.1832644 208.22101039 37.09188464 208.22801208 39.00050354 C208.24542581 44.19284197 208.255975 49.38517118 208.26421762 54.57753158 C208.26936729 57.8214374 208.27544306 61.06534035 208.28172874 64.30924416 C208.30078241 74.45830303 208.31501282 84.60735462 208.32334071 94.75642794 C208.33311288 106.47231817 208.35943121 118.18801946 208.39984161 129.9038431 C208.43000214 138.95873239 208.44480956 148.01356752 208.44812173 157.06850606 C208.45047238 162.47684915 208.45943489 167.88499043 208.4845829 173.29327965 C208.50786725 178.38307365 208.5120953 183.47253302 208.50182152 188.56236649 C208.50132613 190.42797394 208.50764744 192.29359789 208.52137756 194.15915489 C208.53910943 196.71177793 208.53198443 199.26320171 208.5188446 201.81582642 C208.52981385 202.54921224 208.5407831 203.28259807 208.55208474 204.03820771 C208.47408504 210.34062253 206.46838967 215.69526839 201.99594116 220.21922302 C200.99240601 220.90178162 200.99240601 220.90178162 199.96859741 221.59812927 C199.29699585 222.07121521 198.62539429 222.54430115 197.93344116 223.03172302 C193.77392876 225.50009897 189.77017205 225.31149787 185.09342957 225.31452942 C184.27571679 225.31891167 183.45800402 225.32329393 182.61551207 225.32780898 C179.86577323 225.34120125 177.11606645 225.34737681 174.36630249 225.35350037 C172.39856827 225.36140101 170.43083549 225.36966994 168.46310425 225.37828064 C161.99229314 225.40450563 155.52147554 225.419809 149.05062866 225.43406677 C146.82354923 225.4394263 144.59646984 225.44480381 142.36939049 225.45019913 C133.10552055 225.47182876 123.84165236 225.49056556 114.57776356 225.50182152 C101.29932096 225.5180611 88.02117097 225.55123838 74.74283868 225.60822237 C65.40769852 225.64691884 56.07263662 225.66645389 46.73741835 225.67174208 C41.16135348 225.67539598 35.58560066 225.68742167 30.00962257 225.71984482 C24.76219361 225.74991992 19.51526562 225.75623909 14.26776886 225.74446106 C12.34410167 225.74424028 10.42041127 225.75254905 8.49682426 225.7701149 C5.86517672 225.79283428 3.23534156 225.7844994 0.60368347 225.76863098 C-0.15304805 225.78251307 -0.90977956 225.79639516 -1.68944234 225.81069791 C-8.1660696 225.71483315 -12.81708581 223.12787818 -17.50133389 218.71793592 C-22.48492958 213.16923515 -23.26740165 207.44600197 -23.229599 200.24183655 C-23.23342455 199.46239602 -23.23725009 198.6829555 -23.24119157 197.87989557 C-23.25148034 195.27760336 -23.24753728 192.6755335 -23.24356079 190.07322693 C-23.24790956 188.20357052 -23.25309326 186.3339159 -23.25904846 184.46426392 C-23.27243233 179.39190968 -23.27301777 174.31962998 -23.27048516 169.24726152 C-23.26941498 165.01022377 -23.27430008 160.77320107 -23.27909058 156.53616655 C-23.29018379 146.53858016 -23.2906243 136.54103134 -23.28457642 126.54344177 C-23.27853676 116.23581888 -23.29084788 105.9283325 -23.31214648 95.6207329 C-23.32977036 86.76534964 -23.33576257 77.9100098 -23.33250874 69.05460966 C-23.3306969 63.76820182 -23.33332218 58.48189135 -23.34722328 53.19549942 C-23.35980964 48.22306307 -23.3578498 43.25083927 -23.34481239 38.27840614 C-23.34244878 36.45634578 -23.34517357 34.63427042 -23.35343552 32.81222725 C-23.36392311 30.31903605 -23.35578648 27.82655542 -23.34312439 25.33338928 C-23.35049867 24.61761361 -23.35787296 23.90183793 -23.36547071 23.16437209 C-23.29921095 16.9346517 -21.94748954 11.45105874 -17.81265259 6.66453552 C-17.03921509 6.02387146 -16.26577759 5.3832074 -15.46890259 4.72312927 C-14.30874634 3.73506287 -14.30874634 3.73506287 -13.12515259 2.72703552 C-8.98363464 -0.28156719 -4.90374237 0.00750338 0 0 Z M-8.24923611 16.30687046 C-10.39573221 19.86894615 -10.53050834 22.78236088 -10.48356628 26.82077026 C-10.49051181 27.58443328 -10.49745734 28.34809631 -10.50461334 29.13490063 C-10.52288749 31.68991783 -10.51261829 34.24400694 -10.50234985 36.79905701 C-10.50940815 38.63240758 -10.51815279 40.46575232 -10.52845764 42.29908752 C-10.55097172 47.27640367 -10.54800714 52.25340214 -10.53913617 57.23074985 C-10.53402829 61.385926 -10.54131724 65.54104235 -10.54860824 69.69621235 C-10.56561375 79.49861341 -10.56203491 89.30085883 -10.5453186 99.10325623 C-10.52839578 109.21616758 -10.54423263 119.32864735 -10.57654148 129.44151157 C-10.60323117 138.12446934 -10.61051508 146.8072927 -10.6020264 155.49028736 C-10.59709548 160.67610156 -10.59932183 165.86165603 -10.61981392 171.04743767 C-10.63816123 175.92397003 -10.6322239 180.79988124 -10.60761452 185.67638016 C-10.60260363 187.46541216 -10.6061036 189.25449141 -10.61876297 191.04348564 C-10.63468866 193.48753969 -10.61974962 195.92954709 -10.59709167 198.37350464 C-10.6089274 199.08022432 -10.62076313 199.78694401 -10.63295752 200.51507944 C-10.56277994 204.24516732 -9.93097295 206.67943217 -7.67964077 209.58482456 C-3.21704728 213.8252818 0.63532579 213.3082948 6.56425476 213.30107117 C7.32635779 213.30404229 8.08846082 213.30701341 8.87365788 213.31007457 C11.42915991 213.31875109 13.98461503 213.32026893 16.54013062 213.32176208 C18.37170512 213.32639097 20.20327866 213.33141573 22.03485107 213.33680725 C27.01219784 213.34992583 31.98953113 213.35637508 36.96689248 213.36081791 C40.07662083 213.36374932 43.18634551 213.36785424 46.29607201 213.37232208 C56.02598787 213.38599516 65.75589531 213.39566293 75.48582011 213.39952397 C86.7171937 213.40400535 97.94844562 213.42155778 109.17978221 213.45052457 C117.86185624 213.47213929 126.54389603 213.48222813 135.22599667 213.48356509 C140.41124885 213.4846132 145.59638664 213.4905225 150.78161049 213.5083847 C155.65961691 213.52486186 160.5374229 213.52702259 165.41544724 213.5182457 C167.20406697 213.51747515 168.99269746 213.52182034 170.78129005 213.53170395 C173.22676127 213.54442311 175.67152251 213.53854711 178.11698914 213.52812195 C178.8214781 213.53617835 179.52596706 213.54423476 180.25180417 213.5525353 C185.14624336 213.50387747 188.8223953 212.68428295 193.03109741 210.16062927 C195.94421953 205.27668237 196.40723294 201.11085598 196.41204834 195.49449158 C196.4190683 194.38424409 196.4190683 194.38424409 196.42623007 193.25156736 C196.43813157 190.78812601 196.42874216 188.32524597 196.41928101 185.86180115 C196.42334887 184.08889442 196.42869196 182.31599023 196.43521118 180.54309082 C196.44886502 175.73940606 196.4435941 170.93591501 196.43407393 166.13222694 C196.42646734 161.0999818 196.43352572 156.06775301 196.43823242 151.0355072 C196.44368705 142.58548512 196.43650601 134.13554175 196.42221069 125.68553162 C196.40588476 115.92260476 196.41117347 106.15986587 196.42768991 96.39694357 C196.44131308 88.00778646 196.44322036 79.61868587 196.4353739 71.22952127 C196.43070197 66.22206448 196.43005937 61.21469597 196.43998337 56.20724487 C196.44866283 51.49907082 196.44261319 46.79113863 196.4253006 42.08299065 C196.421341 40.35726765 196.42246078 38.63152422 196.42908859 36.9058094 C196.43731517 34.54585577 196.42696973 32.18667187 196.41204834 29.82676697 C196.41091726 28.50755501 196.40978619 27.18834305 196.40862083 25.82915497 C195.97759797 21.6407567 195.13755604 18.81141012 193.03109741 15.16062927 C188.61633994 12.02905636 184.46461059 11.7318369 179.20600891 11.78640747 C178.43670235 11.78243306 177.66739578 11.77845866 176.8747769 11.77436382 C174.30682051 11.76476872 171.73941888 11.77654178 169.17147827 11.78831482 C167.32651057 11.78588595 165.48154418 11.78216571 163.63658142 11.7772522 C158.63255795 11.76785324 153.62873041 11.77725998 148.62472224 11.79058433 C143.38734202 11.80190632 138.14997134 11.79779078 132.9125824 11.7958374 C124.11864015 11.79495474 115.32477503 11.80602962 106.53085327 11.82444763 C96.36292933 11.84562138 86.19511832 11.84912355 76.0271768 11.84288567 C66.24545929 11.83719193 56.46378155 11.84283738 46.68206978 11.85405922 C42.51910224 11.85870439 38.35615904 11.85957942 34.19318962 11.85747337 C29.29219497 11.85559033 24.39131534 11.86369567 19.49034691 11.87953377 C17.69122036 11.8837776 15.89208213 11.88462651 14.09295273 11.88184357 C11.63824285 11.87862248 9.1838768 11.88770165 6.72920227 11.89993286 C5.65994024 11.89426388 5.65994024 11.89426388 4.56907696 11.88848037 C-0.86042594 11.93637677 -4.25596444 12.54841843 -8.24923611 16.30687046 Z " fill="#000000" transform="translate(293.9689025878906,263.83937072753906)"/>
<path d="M0 0 C1.22656916 -0.00657338 1.22656916 -0.00657338 2.47791749 -0.01327956 C5.22765633 -0.02667183 7.97736312 -0.03284739 10.72712708 -0.03897095 C12.6948613 -0.04687159 14.66259407 -0.05514052 16.63032532 -0.06375122 C23.10113643 -0.08997621 29.57195402 -0.10527958 36.0428009 -0.11953735 C38.26988034 -0.12489688 40.49695973 -0.13027439 42.72403908 -0.13566971 C51.98790902 -0.15729934 61.25177721 -0.17603614 70.51566601 -0.1872921 C83.79410861 -0.20353168 97.0722586 -0.23670896 110.35059088 -0.29369295 C119.68573105 -0.33238942 129.02079294 -0.35192447 138.35601121 -0.35721266 C143.93207609 -0.36086656 149.50782891 -0.37289225 155.08380699 -0.4053154 C160.33123595 -0.4353905 165.57816394 -0.44170967 170.82566071 -0.42993164 C172.7493279 -0.42971086 174.6730183 -0.43801963 176.5966053 -0.45558548 C179.22825284 -0.47830487 181.85808801 -0.46996998 184.48974609 -0.45410156 C185.24647761 -0.46798365 186.00320913 -0.48186574 186.7828719 -0.49616849 C193.25949916 -0.40030374 197.91051537 2.18665124 202.59476346 6.5965935 C207.57835915 12.14529427 208.36083122 17.86852744 208.32302856 25.07269287 C208.32685411 25.85213339 208.33067966 26.63157392 208.33462113 27.43463385 C208.34490991 30.03692606 208.34096685 32.63899592 208.33699036 35.24130249 C208.34133913 37.1109589 208.34652283 38.98061352 208.35247803 40.8502655 C208.3658619 45.92261974 208.36644734 50.99489944 208.36391473 56.06726789 C208.36284454 60.30430565 208.36772964 64.54132835 208.37252015 68.77836287 C208.38361336 78.77594926 208.38405387 88.77349808 208.37800598 98.77108765 C208.37196633 109.07871053 208.38427745 119.38619692 208.40557605 129.69379652 C208.42319992 138.54917977 208.42919214 147.40451961 208.42593831 156.25991976 C208.42412647 161.5463276 208.42675174 166.83263807 208.44065285 172.11903 C208.4532392 177.09146635 208.45127936 182.06369014 208.43824196 187.03612328 C208.43587835 188.85818364 208.43860313 190.680259 208.44686508 192.50230217 C208.45735268 194.99549337 208.44921605 197.487974 208.43655396 199.98114014 C208.44392824 200.69691581 208.45130252 201.41269149 208.45890027 202.15015733 C208.39484378 208.17272686 207.12592448 213.72165785 203.1599884 218.39608765 C202.48838684 218.93491577 201.81678528 219.4737439 201.12483215 220.02890015 C200.45580872 220.58319702 199.78678528 221.1374939 199.0974884 221.70858765 C194.41236971 225.03583125 190.69985778 225.4443853 185.00440979 225.42132568 C183.77655899 225.42812235 183.77655899 225.42812235 182.52390313 225.43505633 C179.77721554 225.44773047 177.03072547 225.44607801 174.28401184 225.44442749 C172.31612899 225.45041094 170.34824849 225.45721606 168.38037109 225.46478271 C163.03105533 225.48247056 157.68180353 225.48713932 152.33246136 225.48841429 C147.86687297 225.49031263 143.40129951 225.49766959 138.93571687 225.50475848 C128.39832444 225.5210513 117.8609662 225.52592669 107.32356262 225.52450562 C96.45586702 225.52330455 85.58837014 225.54439741 74.72072482 225.57599294 C65.3898013 225.60215351 56.05894267 225.61287297 46.72798276 225.6115948 C41.15534818 225.61108502 35.58289009 225.61677694 30.01029205 225.6379509 C24.76698723 225.65732896 19.52402727 225.65746054 14.28071022 225.64291763 C12.3586686 225.64082778 10.43660543 225.64554094 8.51460075 225.65763855 C5.88539327 225.67311248 3.25737168 225.66376901 0.62818909 225.64837646 C-0.50588501 225.66380715 -0.50588501 225.66380715 -1.66286969 225.67954957 C-8.0407703 225.59734758 -13.44623423 223.6595165 -17.9962616 219.08358765 C-18.67882019 218.06651733 -18.67882019 218.06651733 -19.37516785 217.02890015 C-20.08479675 216.00409546 -20.08479675 216.00409546 -20.8087616 214.95858765 C-23.20486925 211.12813182 -23.09139617 207.90834972 -23.09829712 203.49507141 C-23.10338494 202.69525284 -23.10847276 201.89543427 -23.11371475 201.07137877 C-23.12948138 198.37615005 -23.13797546 195.68094821 -23.14640808 192.98568726 C-23.15594333 191.05913114 -23.16583435 189.13257676 -23.17605591 187.20602417 C-23.20748539 180.86445152 -23.22771579 174.52286559 -23.2462616 168.1812439 C-23.24955892 167.10267726 -23.25285624 166.02411063 -23.25625348 164.91286016 C-23.28704139 154.74162398 -23.31375171 144.5703849 -23.33067226 134.39911556 C-23.35257256 121.38628507 -23.39452144 108.37386756 -23.46410984 95.36120218 C-23.51136675 86.21375312 -23.53560831 77.0664154 -23.54286915 67.9188481 C-23.54782377 62.45501173 -23.56288653 56.99164044 -23.60261345 51.52793694 C-23.63952159 46.38387286 -23.64787558 41.24053864 -23.63460732 36.09636688 C-23.6346612 34.21181123 -23.64493078 32.32722291 -23.66635895 30.44278908 C-23.85126302 13.25830004 -23.85126302 13.25830004 -18.53694248 6.69622135 C-12.87545662 1.23635254 -7.74371499 0.00501962 0 0 Z M-7.93766785 15.15390015 C-10.85078997 20.03784705 -11.31380337 24.20367344 -11.31861877 29.82003784 C-11.32329875 30.56020283 -11.32797872 31.30036782 -11.33280051 32.06296206 C-11.344702 34.52640341 -11.33531259 36.98928345 -11.32585144 39.45272827 C-11.3299193 41.225635 -11.33526239 42.99853919 -11.34178162 44.7714386 C-11.35543545 49.57512336 -11.35016453 54.37861441 -11.34064436 59.18230247 C-11.33303777 64.21454762 -11.34009615 69.24677641 -11.34480286 74.27902222 C-11.35025749 82.7290443 -11.34307645 91.17898767 -11.32878113 99.6289978 C-11.31245519 109.39192466 -11.31774391 119.15466355 -11.33426034 128.91758585 C-11.34788352 137.30674296 -11.3497908 145.69584355 -11.34194434 154.08500814 C-11.3372724 159.09246494 -11.3366298 164.09983345 -11.3465538 169.10728455 C-11.35523326 173.81545859 -11.34918362 178.52339079 -11.33187103 183.23153877 C-11.32791143 184.95726177 -11.32903122 186.6830052 -11.33565903 188.40872002 C-11.34388561 190.76867365 -11.33354016 193.12785755 -11.31861877 195.48776245 C-11.3174877 196.80697441 -11.31635662 198.12618637 -11.31519127 199.48537445 C-10.88416841 203.67377272 -10.04412647 206.5031193 -7.93766785 210.15390015 C-3.52291037 213.28547306 0.62881897 213.58269252 5.88742065 213.52812195 C6.65672722 213.53209635 7.42603378 213.53607076 8.21865267 213.5401656 C10.78660906 213.5497607 13.35401069 213.53798764 15.92195129 213.5262146 C17.766919 213.52864347 19.61188539 213.53236371 21.45684814 213.53727722 C26.46087162 213.54667618 31.46469916 213.53726944 36.46870732 213.52394509 C41.70608754 213.5126231 46.94345822 213.51673864 52.18084717 213.51869202 C60.97478942 213.51957468 69.76865453 213.5084998 78.56257629 213.49008179 C88.73050024 213.46890804 98.89831124 213.46540587 109.06625277 213.47164375 C118.84797028 213.47733749 128.62964801 213.47169203 138.41135979 213.4604702 C142.57432732 213.45582503 146.73727052 213.45495 150.90023994 213.45705605 C155.8012346 213.45893909 160.70211423 213.45083375 165.60308266 213.43499565 C167.40220921 213.43075182 169.20134743 213.42990291 171.00047684 213.43268585 C173.45518671 213.43590694 175.90955277 213.42682777 178.36422729 213.41459656 C179.07706865 213.41837588 179.78991 213.42215521 180.52435261 213.42604905 C185.95385551 213.37815265 189.349394 212.76611099 193.34266567 209.00765896 C195.48916178 205.44558327 195.62393791 202.53216854 195.57699585 198.49375916 C195.58394138 197.73009613 195.59088691 196.96643311 195.59804291 196.17962879 C195.61631706 193.62461159 195.60604785 191.07052248 195.59577942 188.51547241 C195.60283771 186.68212184 195.61158235 184.84877709 195.62188721 183.01544189 C195.64440128 178.03812574 195.6414367 173.06112728 195.63256574 168.08377957 C195.62745786 163.92860342 195.63474681 159.77348706 195.64203781 155.61831707 C195.65904332 145.81591601 195.65546448 136.01367059 195.63874817 126.21127319 C195.62182535 116.09836183 195.6376622 105.98588207 195.66997105 95.87301785 C195.69666074 87.19006008 195.70394464 78.50723672 195.69545597 69.82424206 C195.69052505 64.63842786 195.69275139 59.45287338 195.71324348 54.26709175 C195.7315908 49.39055939 195.72565346 44.51464818 195.70104408 39.63814926 C195.6960332 37.84911726 195.69953316 36.06003801 195.71219254 34.27104378 C195.72811822 31.82698973 195.71317919 29.38498233 195.69052124 26.94102478 C195.70235697 26.2343051 195.7141927 25.52758541 195.72638708 24.79944998 C195.6562095 21.0693621 195.02440251 18.63509725 192.77307034 15.72970486 C188.31047684 11.48924762 184.45810378 12.00623462 178.5291748 12.01345825 C177.76707177 12.01048713 177.00496874 12.00751601 176.21977168 12.00445485 C173.66426966 11.99577833 171.10881454 11.99426049 168.55329895 11.99276733 C166.72172445 11.98813844 164.89015091 11.98311369 163.05857849 11.97772217 C158.08123172 11.96460359 153.10389844 11.95815434 148.12653708 11.95371151 C145.01680873 11.9507801 141.90708406 11.94667518 138.79735756 11.94220734 C129.0674417 11.92853425 119.33753425 11.91886649 109.60760945 11.91500545 C98.37623587 11.91052407 87.14498394 11.89297164 75.91364735 11.86400485 C67.23157333 11.84239013 58.54953354 11.83230129 49.86743289 11.83096433 C44.68218071 11.82991621 39.49704293 11.82400691 34.31181908 11.80614471 C29.43381265 11.78966756 24.55600667 11.78750683 19.67798233 11.79628372 C17.8893626 11.79705427 16.1007321 11.79270908 14.31213951 11.78282547 C11.8666683 11.77010631 9.42190705 11.7759823 6.97644043 11.78640747 C6.27195147 11.77835107 5.56746251 11.77029466 4.84162539 11.76199412 C-0.05281379 11.81065194 -3.72896573 12.63024647 -7.93766785 15.15390015 Z " fill="#000000" transform="translate(32.93766784667969,22.846099853515625)"/>
<path d="M0 0 C0.8185672 -0.00453111 1.63713439 -0.00906223 2.48050666 -0.01373065 C5.22719425 -0.02640479 7.97368432 -0.02475232 10.72039795 -0.02310181 C12.6882808 -0.02908525 14.6561613 -0.03589037 16.6240387 -0.04345703 C21.97335446 -0.06114487 27.32260626 -0.06581364 32.67194843 -0.0670886 C37.13753682 -0.06898695 41.60311028 -0.07634391 46.06869292 -0.08343279 C56.60608535 -0.09972562 67.14344359 -0.104601 77.68084717 -0.10317993 C88.54854277 -0.10197887 99.41603965 -0.12307172 110.28368497 -0.15466726 C119.61460849 -0.18082782 128.94546712 -0.19154729 138.27642703 -0.19026911 C143.84906161 -0.18975933 149.4215197 -0.19545126 154.99411774 -0.21662521 C160.23742256 -0.23600327 165.48038252 -0.23613486 170.72369957 -0.22159195 C172.64574119 -0.21950209 174.56780436 -0.22421526 176.48980904 -0.23631287 C179.11901652 -0.2517868 181.74703811 -0.24244332 184.3762207 -0.22705078 C185.5102948 -0.24248147 185.5102948 -0.24248147 186.66727948 -0.25822389 C193.04132077 -0.17607164 198.41855613 1.77263483 203.00067139 6.30258179 C203.45571045 6.97160522 203.91074951 7.64062866 204.37957764 8.32992554 C204.85266357 9.0015271 205.32574951 9.67312866 205.81317139 10.36508179 C208.2455223 14.46388765 208.09038974 18.36908176 208.08924866 22.97731018 C208.09292535 23.77052164 208.09660203 24.5637331 208.10039014 25.38098127 C208.11143256 28.04780708 208.11527177 30.71459394 208.11907959 33.38143921 C208.12534385 35.29006067 208.13199061 37.19868091 208.13899231 39.1072998 C208.15640603 44.29963823 208.16695522 49.49196745 208.17519784 54.68432784 C208.18034752 57.92823366 208.18642328 61.17213662 208.19270897 64.41604042 C208.21176263 74.56509929 208.22599305 84.71415088 208.23432094 94.86322421 C208.2440931 106.57911444 208.27041143 118.29481572 208.31082183 130.01063937 C208.34098236 139.06552866 208.35578978 148.12036378 208.35910195 157.17530233 C208.3614526 162.58364542 208.37041511 167.9917867 208.39556313 173.40007591 C208.41884748 178.48986992 208.42307552 183.57932929 208.41280174 188.66916275 C208.41230635 190.53477021 208.41862767 192.40039416 208.43235779 194.26595116 C208.45008965 196.8185742 208.44296465 199.36999798 208.42982483 201.92262268 C208.44079408 202.65600851 208.45176332 203.38939433 208.46306497 204.14500397 C208.3850134 210.45160951 206.38969048 215.8336671 201.87176514 220.32601929 C201.19371826 220.78105835 200.51567139 221.23609741 199.81707764 221.70492554 C198.79227295 222.41455444 198.79227295 222.41455444 197.74676514 223.13851929 C193.86376848 225.56749338 190.55943646 225.41845184 186.08670044 225.42132568 C185.26575854 225.42570794 184.44481664 225.43009019 183.59899771 225.43460524 C180.83233329 225.44802092 178.06570074 225.45417835 175.29901123 225.46029663 C173.32157242 225.46819553 171.34413505 225.47646435 169.36669922 225.4850769 C162.85798525 225.51132551 156.34926476 225.52660917 149.84051514 225.54086304 C147.60136536 225.54622189 145.36221563 225.5515994 143.12306595 225.55699539 C133.80862422 225.57862988 124.49418425 225.59736641 115.17972374 225.60861778 C101.82512444 225.62485441 88.47081624 225.65801896 75.11632669 225.71501863 C65.73025169 225.75371549 56.34425455 225.7732503 46.95810187 225.77853835 C41.35072372 225.78219264 35.74365584 225.79422226 30.13636398 225.82664108 C24.8585804 225.85671629 19.5812949 225.8630353 14.30344391 225.85125732 C12.36848977 225.85103653 10.43351257 225.85934612 8.49863815 225.87691116 C5.85161378 225.89962884 3.2063915 225.89129632 0.55935669 225.87542725 C-0.2019479 225.88930933 -0.96325248 225.90319142 -1.7476269 225.91749418 C-8.24095143 225.82193085 -12.89304792 223.24730695 -17.59017909 218.82473218 C-22.57413403 213.2763529 -23.35642087 207.55269239 -23.31861877 200.34863281 C-23.32244432 199.56919229 -23.32626987 198.78975177 -23.33021134 197.98669183 C-23.34050012 195.38439963 -23.33655706 192.78232976 -23.33258057 190.18002319 C-23.33692934 188.31036679 -23.34211304 186.44071216 -23.34806824 184.57106018 C-23.36145211 179.49870594 -23.36203755 174.42642624 -23.35950494 169.35405779 C-23.35843475 165.11702004 -23.36331985 160.87999734 -23.36811036 156.64296281 C-23.37920357 146.64537642 -23.37964408 136.6478276 -23.37359619 126.65023804 C-23.36755654 116.34261515 -23.37986766 106.03512877 -23.40116626 95.72752917 C-23.41879013 86.87214591 -23.42478235 78.01680607 -23.42152852 69.16140592 C-23.41971668 63.87499809 -23.42234195 58.58868762 -23.43624306 53.30229568 C-23.44882941 48.32985934 -23.44686957 43.35763554 -23.43383217 38.38520241 C-23.43146856 36.56314204 -23.43419334 34.74106668 -23.44245529 32.91902351 C-23.45294289 30.42583232 -23.44480626 27.93335169 -23.43214417 25.44018555 C-23.43951845 24.72440987 -23.44689273 24.0086342 -23.45449048 23.27116835 C-23.39043399 17.24859883 -22.12151469 11.69966783 -18.15557861 7.02523804 C-17.48397705 6.48640991 -16.81237549 5.94758179 -16.12042236 5.39242554 C-15.45139893 4.83812866 -14.78237549 4.28383179 -14.09307861 3.71273804 C-9.40795992 0.38549444 -5.69544799 -0.02305961 0 0 Z M-8.33825588 16.41366673 C-10.48475199 19.97574242 -10.61952812 22.88915715 -10.57258606 26.92756653 C-10.57953159 27.69122955 -10.58647712 28.45489257 -10.59363312 29.24169689 C-10.61190727 31.7967141 -10.60163806 34.35080321 -10.59136963 36.90585327 C-10.59842792 38.73920385 -10.60717256 40.57254859 -10.61747742 42.40588379 C-10.63999149 47.38319994 -10.63702691 52.36019841 -10.62815595 57.33754611 C-10.62304807 61.49272227 -10.63033702 65.64783862 -10.63762802 69.80300862 C-10.65463353 79.60540968 -10.65105469 89.40765509 -10.63433838 99.21005249 C-10.61741555 109.32296385 -10.63325241 119.43544362 -10.66556126 129.54830784 C-10.69225095 138.2312656 -10.69953485 146.91408896 -10.69104618 155.59708363 C-10.68611526 160.78289782 -10.6883416 165.9684523 -10.70883369 171.15423393 C-10.72718101 176.03076629 -10.72124367 180.9066775 -10.69663429 185.78317642 C-10.69162341 187.57220843 -10.69512337 189.36128768 -10.70778275 191.15028191 C-10.72370843 193.59433596 -10.7087694 196.03634335 -10.68611145 198.4803009 C-10.69794718 199.18702059 -10.70978291 199.89374027 -10.72197729 200.6218757 C-10.65179971 204.35196359 -10.01999272 206.78622844 -7.76866055 209.69162083 C-3.29630689 213.94135239 0.57762959 213.4150611 6.51992798 213.40786743 C7.28682013 213.41083855 8.05371228 213.41380968 8.84384358 213.41687083 C11.41549905 213.42554766 13.98710791 213.42706521 16.55877686 213.42855835 C18.40182596 213.43318718 20.24487411 213.43821193 22.08792114 213.44360352 C27.09619152 213.45672177 32.10444849 213.46317116 37.11273336 213.46761417 C40.241215 213.47054534 43.36969297 213.47465019 46.49817276 213.47911835 C56.28521771 213.49279069 66.07225429 213.50245909 75.85930812 213.50632024 C87.159742 213.51080291 98.46005503 213.52836164 109.76045215 213.55732083 C118.49431477 213.57892669 127.22814337 213.58902391 135.96203244 213.59036136 C141.17911049 213.59141001 146.39607491 213.59733087 151.61312485 213.61518097 C156.51985498 213.63164306 161.42638581 213.6338262 166.3331337 213.62504196 C168.13346134 213.62427064 169.93379961 213.62862687 171.73410034 213.63850021 C174.19305807 213.65119452 176.65130722 213.64535691 179.11026001 213.63491821 C179.82155276 213.64297462 180.53284551 213.65103102 181.26569259 213.65933156 C185.89215512 213.61344113 189.14765235 212.95998181 192.94207764 210.26742554 C195.78446624 205.3411774 196.31820513 201.22701566 196.32302856 195.60128784 C196.33004852 194.49104036 196.33004852 194.49104036 196.3372103 193.35836363 C196.34911179 190.89492227 196.33972238 188.43204223 196.33026123 185.96859741 C196.33432909 184.19569068 196.33967218 182.42278649 196.34619141 180.64988708 C196.35984524 175.84620232 196.35457432 171.04271128 196.34505415 166.23902321 C196.33744756 161.20677807 196.34450594 156.17454927 196.34921265 151.14230347 C196.35466728 142.69228138 196.34748624 134.24233801 196.33319092 125.79232788 C196.31686498 116.02940102 196.3221537 106.26666214 196.33867013 96.50373983 C196.35229331 88.11458273 196.35420059 79.72548214 196.34635413 71.33631754 C196.34168219 66.32886074 196.34103959 61.32149223 196.35096359 56.31404114 C196.35964305 51.60586709 196.35359341 46.89793489 196.33628082 42.18978691 C196.33232122 40.46406391 196.33344101 38.73832048 196.34006882 37.01260567 C196.3482954 34.65265204 196.33794995 32.29346814 196.32302856 29.93356323 C196.32189749 28.61435127 196.32076641 27.29513931 196.31960106 25.93595123 C195.88507318 21.71349355 195.12168161 18.92160467 192.94207764 15.26742554 C188.07662455 12.35099094 183.59204233 11.83497549 178.03469849 11.89320374 C177.26862105 11.88922933 176.50254361 11.88525492 175.71325171 11.88116008 C173.16221876 11.87158336 170.61174682 11.88332675 168.06072998 11.89511108 C166.22546686 11.89268163 164.39020506 11.88896082 162.5549469 11.88404846 C157.58197284 11.87465822 152.60919624 11.88404854 147.63623762 11.89738059 C142.42955979 11.90871066 137.22289145 11.90458646 132.01620483 11.90263367 C123.27531718 11.90175134 114.53450717 11.91281955 105.79364014 11.9312439 C95.6876112 11.95242379 85.58169588 11.9559182 75.47564924 11.94968194 C65.75106072 11.94398833 56.02651222 11.94963306 46.30192947 11.96085548 C42.16408168 11.96550015 38.02625836 11.96637591 33.88840866 11.96426964 C29.01776917 11.96238663 24.14724541 11.97049166 19.27663231 11.98633003 C17.48879284 11.99057372 15.70094163 11.99142287 13.91309929 11.98863983 C11.47376886 11.98541859 9.03478437 11.99449825 6.5954895 12.00672913 C5.88722122 12.0029498 5.17895293 11.99917048 4.44922197 11.99527663 C-0.96705563 12.04335452 -4.35496757 12.664611 -8.33825588 16.41366673 Z " fill="#000000" transform="translate(294.05792236328125,22.732574462890625)"/>
<path d="M0 0 C0.61875 -0.02191406 1.2375 -0.04382813 1.875 -0.06640625 C6.41156094 1.27621565 9.09092602 4.09384897 11.51074219 8.00317383 C13.04212844 10.88701541 14.47371796 13.80083439 15.875 16.75 C16.37257813 17.75998047 16.87015625 18.76996094 17.3828125 19.81054688 C21 27.23869978 21 27.23869978 21 29.5625 C21.85980469 29.61148437 22.71960938 29.66046875 23.60546875 29.7109375 C46.9847438 31.18967027 46.9847438 31.18967027 53 35.5625 C55.04695037 39.1105473 55.94198541 41.79380672 56.25 45.875 C53.2821056 54.63028847 44.78461443 60.85974678 37.96875 66.75 C35.92528091 68.41599944 35.92528091 68.41599944 35 70.5625 C35.25340521 72.87087533 35.25340521 72.87087533 35.8125 75.5078125 C36.00070312 76.50296875 36.18890625 77.498125 36.3828125 78.5234375 C36.78986756 80.61023874 37.2012315 82.69620472 37.6171875 84.78125 C38.73256891 90.7248578 39.34038924 95.62841499 38 101.5625 C34.71134304 105.52575325 32.65189829 107.36673327 27.5390625 107.97265625 C21.71816868 107.90038782 17.28038315 104.86031219 12.375 102 C6.0194791 98.04346236 6.0194791 98.04346236 -1.10546875 96.44140625 C-5.15230346 98.00880377 -8.90005677 99.95146607 -12.6875 102.0625 C-14.19035013 102.88734383 -15.69421642 103.71033964 -17.19921875 104.53125 C-17.85752686 104.89669922 -18.51583496 105.26214844 -19.1940918 105.63867188 C-23.22233921 107.69935705 -26.52799583 107.9414834 -31 107.5625 C-35.0336061 105.43153829 -37.28519781 103.77084482 -39 99.5625 C-39.58269395 92.68671141 -38.36274086 86.30250884 -36.97973633 79.59106445 C-36.18423666 75.55269308 -35.7760989 72.50258597 -37 68.5625 C-38.73894798 66.30743935 -38.73894798 66.30743935 -41 64.2421875 C-41.804375 63.45972656 -42.60875 62.67726563 -43.4375 61.87109375 C-44.283125 61.06800781 -45.12875 60.26492188 -46 59.4375 C-47.67101984 57.83525689 -49.33789844 56.22868019 -51 54.6171875 C-52.11375 53.55733643 -52.11375 53.55733643 -53.25 52.47607422 C-55.67831228 49.8207852 -55.97712919 47.80493056 -56.3125 44.25 C-55.94050629 39.8604742 -54.80652364 37.91473657 -52 34.5625 C-48.75627205 32.46825706 -46.1572667 32.35266345 -42.34375 32.3359375 C-29.93376959 32.11206427 -29.93376959 32.11206427 -19.70507812 26.09082031 C-16.51035099 21.00285998 -14.37417927 15.68035064 -12.296875 10.0625 C-10.04445473 4.00936794 -10.04445473 4.00936794 -6.953125 1.84765625 C-2.69454738 -0.00561364 -2.69454738 -0.00561364 0 0 Z M-1 16.5625 C-1.27674561 17.14741211 -1.55349121 17.73232422 -1.83862305 18.33496094 C-3.10873717 21.00048243 -4.39785364 23.65637728 -5.6875 26.3125 C-6.34008789 27.69308594 -6.34008789 27.69308594 -7.00585938 29.1015625 C-7.44091797 29.99101562 -7.87597656 30.88046875 -8.32421875 31.796875 C-8.9133606 33.02229004 -8.9133606 33.02229004 -9.5144043 34.27246094 C-11.95122275 38.02880557 -14.54390709 40.14473484 -18.86254883 41.38378906 C-19.88372803 41.53041992 -20.90490723 41.67705078 -21.95703125 41.828125 C-23.06884766 41.99570312 -24.18066406 42.16328125 -25.32617188 42.3359375 C-26.47666016 42.49320312 -27.62714844 42.65046875 -28.8125 42.8125 C-29.98232422 42.98523438 -31.15214844 43.15796875 -32.35742188 43.3359375 C-35.23653549 43.75899093 -38.11695469 44.16729247 -41 44.5625 C-36.79858604 49.59327437 -32.40140657 54.24578135 -27.70507812 58.81835938 C-23.09155025 63.35531418 -23.09155025 63.35531418 -22.83203125 66.77734375 C-22.78914455 72.75574911 -23.36352628 78.24641792 -24.5546875 84.1015625 C-25.07073183 86.95338642 -25.15630784 89.67080489 -25 92.5625 C-19.37342984 90.91527607 -14.6642042 88.27248979 -9.65429688 85.30859375 C-5.27488176 82.85108023 -2.13576615 81.8580365 3 82.5625 C5.82326465 83.62285787 8.42278254 84.98578098 11.0625 86.4375 C15.64431431 88.8909597 19.98708909 91.07661377 25 92.5625 C24.85582642 91.67111328 24.85582642 91.67111328 24.70874023 90.76171875 C24.27359669 88.03032354 23.85545944 85.2965753 23.4375 82.5625 C23.28603516 81.62792969 23.13457031 80.69335938 22.97851562 79.73046875 C21.94631541 72.86513711 21.00617615 66.52302632 25.0625 60.5 C27.8742645 57.50023962 31.00884708 54.83977745 34.12890625 52.16796875 C36.2011768 50.38988274 38.1844517 48.60499184 40 46.5625 C40 45.9025 40 45.2425 40 44.5625 C39.26885986 44.46751221 38.53771973 44.37252441 37.78442383 44.2746582 C34.45711882 43.82987368 31.13521602 43.35281206 27.8125 42.875 C26.66201172 42.72611328 25.51152344 42.57722656 24.32617188 42.42382812 C15.9119887 41.17999235 15.9119887 41.17999235 12 38.53125 C9.25636529 34.45866722 7.19284393 30.2244862 5.1875 25.75 C4.78080078 24.86634766 4.37410156 23.98269531 3.95507812 23.07226562 C2.96007211 20.9066643 1.97546055 18.73695751 1 16.5625 C0.34 16.5625 -0.32 16.5625 -1 16.5625 Z " fill="#000000" transform="translate(387,322.4375)"/>
<path d="M0 0 C0.7205658 -0.0065712 1.44113159 -0.0131424 2.18353271 -0.01991272 C4.57393496 -0.03966037 6.96427423 -0.05131353 9.35473633 -0.0612793 C10.1716073 -0.06535482 10.98847828 -0.06943035 11.83010292 -0.07362938 C16.15642673 -0.09449964 20.48271875 -0.10879534 24.80908203 -0.11816406 C29.27015241 -0.12921083 33.73072154 -0.16358758 38.1916151 -0.20333576 C41.62753705 -0.22953439 45.06334038 -0.23785892 48.49935341 -0.24144554 C50.14313441 -0.24630571 51.78691031 -0.25790351 53.43059349 -0.27648354 C55.73798131 -0.30093777 58.04408368 -0.29989883 60.3515625 -0.29296875 C61.66235275 -0.29883499 62.97314301 -0.30470123 64.32365417 -0.31074524 C69.78302819 0.41370373 73.43235444 2.56773981 77.31176758 6.55200195 C80.53490719 11.56577468 81.25108002 16.17287695 81.27392578 22.06518555 C81.27903671 22.72620773 81.28414764 23.38722992 81.28941345 24.06828308 C81.30322917 26.23742923 81.30235865 28.40625473 81.30004883 30.57543945 C81.30394049 32.09469723 81.30827613 33.61395392 81.31303406 35.13320923 C81.32047926 38.31223075 81.32021761 41.49114119 81.31494141 44.67016602 C81.30915245 48.72741343 81.32607184 52.78420348 81.34928608 56.84137535 C81.3640783 59.97796246 81.36488764 63.11444085 81.36177635 66.25105667 C81.36228692 67.74605845 81.36747468 69.24106674 81.37758827 70.73603439 C81.48009453 88.00792058 81.48009453 88.00792058 76.28051758 94.2355957 C75.69270508 94.69063477 75.10489258 95.14567383 74.49926758 95.61450195 C73.91145508 96.08758789 73.32364258 96.56067383 72.71801758 97.0480957 C68.90307341 99.5538204 65.30307016 99.32062347 60.86914062 99.35400391 C60.14682251 99.3605751 59.42450439 99.3671463 58.68029785 99.37391663 C56.29052625 99.39362269 53.90081741 99.40530599 51.51098633 99.4152832 C50.69378428 99.41935873 49.87658222 99.42343426 49.03461647 99.42763329 C44.7094409 99.44848226 40.38429696 99.4627892 36.05908203 99.47216797 C31.59682184 99.48323176 27.13506041 99.51763432 22.67297649 99.55733967 C19.23709702 99.58351035 15.80133635 99.59186017 12.36536598 99.59544945 C10.72075849 99.60031403 9.07615627 99.61192445 7.43164635 99.63048744 C5.12655698 99.65489027 2.82275768 99.65391251 0.51757812 99.64697266 C-0.79241653 99.6528389 -2.10241119 99.65870514 -3.45210266 99.66474915 C-8.72634395 98.93982247 -12.52067286 96.24396629 -15.81323242 92.11450195 C-19.099803 87.70110718 -19.13297563 84.61269114 -19.16186523 79.23046875 C-19.16683014 78.52765778 -19.17179504 77.8248468 -19.1769104 77.10073853 C-19.19151367 74.77588928 -19.19833129 72.45110828 -19.20385742 70.1262207 C-19.20961083 68.50820413 -19.21536854 66.89018757 -19.22113037 65.27217102 C-19.23163544 61.87854698 -19.23748119 58.4849466 -19.2409668 55.09130859 C-19.24644748 50.75020415 -19.2704683 46.40941399 -19.29893875 42.06840801 C-19.3175959 38.72517494 -19.32277239 35.38201707 -19.32430267 32.03873634 C-19.32732329 30.43880306 -19.33533187 28.83887092 -19.34848785 27.23898888 C-19.36561159 24.99632493 -19.36365299 22.75442219 -19.35717773 20.51171875 C-19.36082336 19.23725388 -19.36446899 17.962789 -19.3682251 16.64970398 C-18.88089786 12.04459915 -17.42523117 8.69033358 -14.24682617 5.3137207 C-13.64999023 4.83547852 -13.0531543 4.35723633 -12.43823242 3.86450195 C-11.83881836 3.37336914 -11.2394043 2.88223633 -10.62182617 2.3762207 C-7.09416104 -0.23340145 -4.3496711 0.03276604 0 0 Z M-4.88491821 14.29954529 C-6.54520077 17.09311838 -6.38234172 19.3851407 -6.38891602 22.62036133 C-6.39417297 23.26946976 -6.39942993 23.91857819 -6.40484619 24.58735657 C-6.41804538 26.7320668 -6.40930914 28.87603423 -6.39916992 31.02075195 C-6.4011907 32.51143537 -6.40410217 34.00211782 -6.40786743 35.49279785 C-6.41229065 38.61663222 -6.40586007 41.74020922 -6.3918457 44.86401367 C-6.3747535 48.86918372 -6.38459475 52.8737507 -6.4025631 56.87889862 C-6.41340119 59.95697579 -6.40995455 63.03490987 -6.40217972 66.11299133 C-6.40017776 67.58978853 -6.40263684 69.06659869 -6.40961838 70.54338074 C-6.41723365 72.60715165 -6.40562936 74.66994456 -6.38891602 76.73364258 C-6.38652924 77.90817993 -6.38414246 79.08271729 -6.38168335 80.29284668 C-6.20078766 83.12105787 -6.20078766 83.12105787 -4.88491821 85.05445862 C-2.06681347 86.73340382 0.26953943 86.56625968 3.53442383 86.58105469 C4.52271683 86.59134956 4.52271683 86.59134956 5.53097534 86.60185242 C7.70812548 86.62014913 9.88455708 86.61627963 12.06176758 86.6105957 C13.57487218 86.61515582 15.08797471 86.62046089 16.60107422 86.6264801 C19.77197689 86.63541654 22.94262776 86.63298181 26.11352539 86.62304688 C30.17934839 86.61155 34.24430382 86.63177591 38.31001282 86.66096401 C41.43442311 86.67929869 44.55862438 86.67903922 47.68307495 86.67332649 C49.18221251 86.67317297 50.68136396 86.67924257 52.18045044 86.69161797 C54.27556008 86.70647779 56.36905272 86.69589142 58.46411133 86.67871094 C59.65641357 86.67854477 60.84871582 86.6783786 62.07714844 86.6782074 C65.0356496 86.43047332 65.0356496 86.43047332 66.88345337 84.54298401 C68.32358048 81.48932609 68.3803418 79.19668188 68.38745117 75.81958008 C68.40163589 73.8873761 68.40163589 73.8873761 68.41610718 71.9161377 C68.41073732 70.51350598 68.40458434 69.11087708 68.39770508 67.70825195 C68.39972674 66.26623385 68.40263895 64.82421675 68.40640259 63.38220215 C68.41082163 60.36269377 68.4044087 57.34345196 68.39038086 54.32397461 C68.37328886 50.45680777 68.38313234 46.59026557 68.40109825 42.72312164 C68.41194764 39.74622913 68.40848453 36.76948429 68.40071487 33.79258728 C68.39871604 32.36685614 68.40116103 30.94111151 68.40815353 29.51539612 C68.41578607 27.52174136 68.40208673 25.52803948 68.38745117 23.53442383 C68.383871 21.8337677 68.383871 21.8337677 68.38021851 20.09875488 C67.9457146 16.76627041 67.54278892 15.3828139 64.99926758 13.17700195 C61.9777745 12.57406653 61.9777745 12.57406653 58.46411133 12.67529297 C57.47581833 12.66718849 57.47581833 12.66718849 56.46755981 12.65892029 C54.29017175 12.64641512 52.11410147 12.66293367 49.93676758 12.6809082 C48.42366466 12.68075325 46.91056134 12.67926496 45.39746094 12.67649841 C42.22646538 12.67511363 39.0559217 12.68768494 35.88500977 12.71044922 C31.81928217 12.73883463 27.7543055 12.73609786 23.68852234 12.72335911 C20.56410299 12.71640584 17.43985737 12.72418707 14.31546021 12.73661613 C12.81634182 12.7411341 11.3172048 12.74146441 9.81808472 12.73755074 C7.72314187 12.73464182 5.6292357 12.75112793 3.53442383 12.77294922 C2.34212158 12.7783522 1.14981934 12.78375519 -0.07861328 12.7893219 C-2.94103486 12.97362539 -2.94103486 12.97362539 -4.88491821 14.29954529 Z " fill="#000000" transform="translate(356.000732421875,85.822998046875)"/>
<path d="M0 0 C1.43261719 1.60571289 1.43261719 1.60571289 2.796875 3.78515625 C3.3134668 4.60564453 3.83005859 5.42613281 4.36230469 6.27148438 C7.30160868 11.16857165 10.17146633 16.10063134 13 21.0625 C14.33281249 23.3870198 15.66615243 25.71123089 17 28.03515625 C17.33555908 28.62052155 17.67111816 29.20588684 18.0168457 29.80899048 C21.31385279 35.55734504 24.65380875 41.28018643 28 47 C33.74290478 56.82406087 39.43912306 66.67436276 45.11523438 76.53710938 C45.71013672 77.57029297 46.30503906 78.60347656 46.91796875 79.66796875 C47.44156982 80.57828857 47.9651709 81.4886084 48.50463867 82.42651367 C49.52569539 84.18373145 50.58248593 85.92054416 51.66918945 87.63793945 C53.37064361 90.65785671 53.44543408 92.58500541 53 96 C51.4307019 98.08464236 50.54041142 98.89888002 47.95256042 99.38311005 C47.16279312 99.38683876 46.37302582 99.39056747 45.55932617 99.39440918 C44.65080902 99.40575897 43.74229187 99.41710876 42.8062439 99.42880249 C41.8118631 99.42587189 40.8174823 99.42294128 39.79296875 99.41992188 C38.21946152 99.43262619 38.21946152 99.43262619 36.61416626 99.44558716 C33.13848833 99.46903181 29.66325109 99.4699776 26.1875 99.46875 C23.77758607 99.47584648 21.36767384 99.48354471 18.95776367 99.49182129 C13.90376082 99.50528289 8.84991423 99.50682702 3.79589844 99.50097656 C-2.691261 99.49507563 -9.1776733 99.52568153 -15.66468811 99.56609344 C-20.6420091 99.59189887 -25.61914843 99.59485441 -30.5965271 99.59120178 C-32.98881917 99.59289939 -35.38111907 99.60260302 -37.77334595 99.62034607 C-41.11373434 99.64239614 -44.45258716 99.63290428 -47.79296875 99.61523438 C-48.78734955 99.62849762 -49.78173035 99.64176086 -50.8062439 99.65542603 C-53.30546583 99.62459195 -55.56421952 99.55854237 -58 99 C-60.16455078 96.65759277 -60.16455078 96.65759277 -61 94 C-60.09525995 87.33480495 -56.22867893 81.86504085 -52.8125 76.1875 C-51.53700695 74.03560268 -50.26229378 71.88324294 -48.98828125 69.73046875 C-48.32908691 68.62106934 -47.66989258 67.51166992 -46.99072266 66.36865234 C-43.78177128 60.93854306 -40.64246882 55.46876008 -37.5 50 C-30.92354303 38.58052873 -24.30797324 27.18405633 -17.640625 15.81738281 C-16.45214476 13.77645097 -15.27671549 11.72790095 -14.109375 9.67480469 C-13.48546875 8.58329102 -12.8615625 7.49177734 -12.21875 6.3671875 C-11.65091797 5.3654248 -11.08308594 4.36366211 -10.49804688 3.33154297 C-7.81716786 -0.84094638 -4.71440316 -0.78573386 0 0 Z M-4 20 C-8.60043859 26.12798651 -12.28898878 32.87722244 -16 39.5625 C-21.29656199 49.03049173 -26.71379163 58.41955932 -32.2421875 67.75415039 C-32.79132813 68.68735107 -33.34046875 69.62055176 -33.90625 70.58203125 C-34.38384766 71.38874268 -34.86144531 72.1954541 -35.35351562 73.02661133 C-37.70733096 77.27737007 -39.82701144 81.65402287 -42 86 C-16.59 86 8.82 86 35 86 C32.36 81.38 29.72 76.76 27 72 C24.70383588 67.89823926 22.41195514 63.79436992 20.125 59.6875 C14.88162843 50.29828859 9.54861668 40.97268594 4.03564453 31.73925781 C3.04638911 30.07790571 2.06784494 28.41018953 1.08984375 26.7421875 C0.54457031 25.81664062 -0.00070313 24.89109375 -0.5625 23.9375 C-1.24505859 22.77541016 -1.24505859 22.77541016 -1.94140625 21.58984375 C-2.29074219 21.06519531 -2.64007813 20.54054688 -3 20 C-3.33 20 -3.66 20 -4 20 Z " fill="#000000" transform="translate(129,86)"/>
<path d="M0 0 C10.00758415 8.56418259 17.57655065 20.12454807 18.90844727 33.46264648 C19.68424175 48.76276312 17.45592524 61.93165953 7.6875 74.25 C-2.07571302 84.96076922 -14.84702324 91.20289995 -29.265625 92.4140625 C-43.27333336 92.98474691 -56.37549305 88.09583752 -67.14453125 79.328125 C-77.53401948 69.36919214 -83.09156015 56.81697871 -83.64892578 42.57299805 C-83.92201848 27.89685821 -78.96415508 14.83932749 -69.0625 3.90625 C-50.13729831 -14.0051016 -20.81438986 -15.85557467 0 0 Z M-62.125 16.5625 C-69.62804152 26.86830181 -71.75460778 37.32829847 -69.921875 49.9375 C-67.58754776 59.27480898 -61.37958711 67.63234785 -53.45703125 73.0390625 C-43.72792012 78.53273181 -33.89242786 80.75542053 -22.9375 78.125 C-12.22863888 74.9256722 -3.44094784 68.71710566 2.03515625 58.8125 C6.54713844 48.97993665 7.56136476 37.75752087 4.125 27.375 C-0.64034887 16.12208846 -9.0480061 8.59966757 -20.22265625 3.99609375 C-22.94414385 3.02449724 -25.43065029 2.49526381 -28.3125 2.25 C-29.488125 2.146875 -30.66375 2.04375 -31.875 1.9375 C-43.62366185 2.14006314 -54.72755956 7.58547925 -62.125 16.5625 Z " fill="#000000" transform="translate(157.3125,335.75)"/>
<path d="M0 0 C2.62337757 2.40059671 2.98815193 3.89446376 3.38768005 7.45324707 C3.40849444 8.84954629 3.41280739 10.24615122 3.40405273 11.64257812 C3.41091599 12.40726913 3.41777924 13.17196014 3.42485046 13.95982361 C3.44313011 16.48382204 3.43927987 19.00719967 3.43359375 21.53125 C3.43815464 23.28715212 3.44345994 25.04305246 3.44947815 26.7989502 C3.45841125 30.4775315 3.45598348 34.15589572 3.44604492 37.83447266 C3.43454836 42.54918404 3.45477592 47.26314723 3.48396206 51.97776031 C3.50230405 55.60317749 3.50203574 59.22841465 3.49632454 62.85386658 C3.49617111 64.59220938 3.502233 66.33056422 3.51461601 68.06886292 C3.52948884 70.49886098 3.51887802 72.92746747 3.50170898 75.35742188 C3.51621094 76.43448647 3.51621094 76.43448647 3.53100586 77.53330994 C3.48097219 80.91379764 3.21428555 82.71462951 1.16004944 85.45031738 C-1.7509625 87.53876245 -3.4945721 87.52208501 -7 87 C-8.65933228 85.95568848 -8.65933228 85.95568848 -10 84 C-10.29601763 81.34587219 -10.40991284 78.92618161 -10.38818359 76.27148438 C-10.39344055 75.48582596 -10.39869751 74.70016754 -10.40411377 73.89070129 C-10.41732666 71.29151579 -10.40857134 68.69294182 -10.3984375 66.09375 C-10.40045787 64.28918337 -10.403369 62.48461754 -10.40713501 60.68005371 C-10.4115601 56.89713776 -10.40512139 53.11443424 -10.39111328 49.33154297 C-10.37402125 44.47893108 -10.38386144 39.62681694 -10.40183067 34.77422333 C-10.41266353 31.0476302 -10.40922447 27.32115537 -10.4014473 23.59455872 C-10.39944391 21.80515993 -10.40190942 20.01575045 -10.40888596 18.22636414 C-10.41649232 15.72679127 -10.40490821 13.22802808 -10.38818359 10.72851562 C-10.39425629 9.98660477 -10.40032898 9.24469391 -10.40658569 8.4803009 C-10.3704605 5.57073881 -10.33633015 3.50383088 -8.69448853 1.04431152 C-5.77311218 -0.75612969 -3.3145342 -0.41431677 0 0 Z " fill="#000000" transform="translate(45,352)"/>
<path d="M0 0 C2.7881791 2.83881481 3.38251953 4.92338095 3.3984375 8.84375 C3.40230469 9.76027344 3.40617187 10.67679687 3.41015625 11.62109375 C3.39855469 12.57113281 3.38695312 13.52117187 3.375 14.5 C3.38660156 15.45003906 3.39820313 16.40007812 3.41015625 17.37890625 C3.40628906 18.29542969 3.40242188 19.21195312 3.3984375 20.15625 C3.39336182 21.40631836 3.39336182 21.40631836 3.38818359 22.68164062 C2.91415033 25.51272228 1.91518413 26.89276889 0 29 C-2.70396952 30.26185244 -3.8047815 30.05901955 -6.6875 29.1875 C-9 28 -9 28 -10 26 C-10.26777119 22.19318631 -10.23155806 18.37767654 -10.25 14.5625 C-10.270625 13.49966797 -10.29125 12.43683594 -10.3125 11.34179688 C-10.31765625 10.32279297 -10.3228125 9.30378906 -10.328125 8.25390625 C-10.3374707 7.31877197 -10.34681641 6.3836377 -10.35644531 5.42016602 C-10 3 -10 3 -8.69824219 1.19897461 C-5.82730284 -0.82793498 -3.37803709 -0.42225464 0 0 Z " fill="#000000" transform="translate(45,311)"/>
</svg>
